<?xml version="1.0" encoding="UTF-8" standalone="no"?>
<svg
   version="1.1"
   id="svg2"
   x="0px"
   y="0px"
   viewBox="0 0 595.3 841.9"
   style="enable-background:new 0 0 595.3 841.9;"
   xml:space="preserve"
   sodipodi:docname="Fig5_pan_old.svg"
   inkscape:version="1.1.1 (3bf5ae0d25, 2021-09-20)"
   xmlns:inkscape="http://www.inkscape.org/namespaces/inkscape"
   xmlns:sodipodi="http://sodipodi.sourceforge.net/DTD/sodipodi-0.dtd"
   xmlns="http://www.w3.org/2000/svg"
   xmlns:svg="http://www.w3.org/2000/svg"
   xmlns:rdf="http://www.w3.org/1999/02/22-rdf-syntax-ns#"
   xmlns:cc="http://creativecommons.org/ns#"
   xmlns:dc="http://purl.org/dc/elements/1.1/"><metadata
   id="metadata623"><rdf:RDF><cc:Work
       rdf:about=""><dc:format>image/svg+xml</dc:format><dc:type
         rdf:resource="http://purl.org/dc/dcmitype/StillImage" /></cc:Work></rdf:RDF></metadata><defs
   id="defs621"><clipPath
     clipPathUnits="userSpaceOnUse"
     id="clipPath120"><path
       d="m 346.777,134 h 98.535 v 2 h -98.535 z"
       id="path118-8" /></clipPath><clipPath
     clipPathUnits="userSpaceOnUse"
     id="clipPath130"><path
       d="m 346.777,70 h 98.535 v 2 h -98.535 z"
       id="path128" /></clipPath></defs>
<style
   type="text/css"
   id="style2">
	.st0{font-family:'MyriadPro-Bold';}
	.st1{font-size:9px;}
	.st2{fill:#A7D171;stroke:#A7D171;stroke-width:4.7644;}
	.st3{fill:#FFFFFF;}
	.st4{font-size:4.1002px;}
	.st5{fill:#00F800;stroke:#00D600;stroke-width:0.3217;}
	.st6{fill:#008900;stroke:#00AE00;stroke-width:0.3217;}
	.st7{fill:none;stroke:#00D400;stroke-width:0.2473;}
	.st8{opacity:0.367;fill:#008900;stroke:#00AE00;stroke-width:0.181;enable-background:new    ;}
	.st9{opacity:0.367;fill:none;stroke:#00D400;stroke-width:0.1391;enable-background:new    ;}
	.st10{opacity:0.367;fill:#00F800;stroke:#00D600;stroke-width:0.181;enable-background:new    ;}
	.st11{font-size:2.3063px;}
	.st12{fill-rule:evenodd;clip-rule:evenodd;fill:#440154;}
	.st13{fill:none;stroke:#FFFFFF;stroke-width:0.6219;stroke-linejoin:round;stroke-miterlimit:10;}
	.st14{fill-rule:evenodd;clip-rule:evenodd;fill:#414487;}
	.st15{fill-rule:evenodd;clip-rule:evenodd;fill:#35608D;}
	.st16{fill-rule:evenodd;clip-rule:evenodd;fill:#2A788E;}
	.st17{fill-rule:evenodd;clip-rule:evenodd;fill:#21908C;}
	.st18{fill-rule:evenodd;clip-rule:evenodd;fill:#22A884;}
	.st19{fill-rule:evenodd;clip-rule:evenodd;fill:#43BF71;}
	.st20{fill-rule:evenodd;clip-rule:evenodd;fill:#7AD151;}
	.st21{fill-rule:evenodd;clip-rule:evenodd;fill:#BBDF27;}
	.st22{fill-rule:evenodd;clip-rule:evenodd;fill:#FDE725;}
	.st23{font-size:10px;}
	.st24{fill:none;stroke:#999999;stroke-width:5.3553;}
	.st25{fill:none;stroke:#A7D171;stroke-width:5.3553;}
	.st26{fill:#999999;stroke:#999999;stroke-width:2.8336;}
	.st27{font-size:8px;}
	.st28{font-size:6px;}
	.st29{fill:#1D1D1B;}
	.st30{fill-rule:evenodd;clip-rule:evenodd;}
	.st31{fill:#F49B18;}
	.st32{fill:#EB6914;}
	.st33{fill:#727121;}
	.st34{fill:#717021;}
	.st35{fill:#EC6A17;}
	.st36{opacity:0.37;fill:#717021;}
	.st37{opacity:0.37;fill:#EC6A17;}
	.st38{fill-rule:evenodd;clip-rule:evenodd;fill:#C577E8;}
	.st39{fill:none;stroke:#FF0000;stroke-width:1.3115;}
	.st40{fill-rule:evenodd;clip-rule:evenodd;fill:#FF0000;}
	.st41{fill:none;stroke:#000000;stroke-width:0.7873;stroke-linecap:round;stroke-linejoin:round;stroke-miterlimit:10;}
	.st42{fill:#C577E8;}
	.st43{font-size:7.9722px;}
	.st44{fill:none;stroke:#020202;stroke-miterlimit:10;}
	.st45{stroke:#000000;stroke-width:2.8336;}
</style>
<sodipodi:namedview
   bordercolor="#666666"
   borderopacity="1"
   gridtolerance="10"
   guidetolerance="10"
   id="namedview4"
   inkscape:current-layer="svg2"
   inkscape:cx="297.85633"
   inkscape:cy="420.95001"
   inkscape:document-rotation="0"
   inkscape:document-units="in"
   inkscape:guide-bbox="true"
   inkscape:pageopacity="0"
   inkscape:pageshadow="2"
   inkscape:snap-object-midpoints="true"
   inkscape:window-height="744"
   inkscape:window-maximized="1"
   inkscape:window-width="1364"
   inkscape:window-x="0"
   inkscape:window-y="22"
   inkscape:zoom="0.65803538"
   objecttolerance="10"
   pagecolor="#ffffff"
   showgrid="false"
   showguides="true"
   units="mm"
   inkscape:snap-global="false"
   inkscape:pagecheckerboard="0">
	</sodipodi:namedview>
<text
   transform="matrix(1 0 0 1 56.0434 426.1079)"
   class="st0 st1"
   id="text5">B</text>
<path
   id="path22"
   class="st2"
   d="M304.2,356.4c-88.7,0.4-161.7-42.6-164.1-96.9c-2.4-54.2,66.7-99.6,155.3-102.1" />
<text
   transform="matrix(0.866 -0.5 0.5 0.866 218.6073 124.372)"
   class="st3 st0 st4"
   id="text8">+</text>
<text
   transform="matrix(6.123234e-17 -1 1 6.123234e-17 206.7886 144.1437)"
   class="st3 st0 st4"
   id="text10">_</text>
<text
   transform="matrix(0.866 0.5 -0.5 0.866 259.4862 152.9491)"
   class="st3 st0 st4"
   id="text12">_</text>
<text
   transform="matrix(0.866 0.5 -0.5 0.866 262.4974 116.3346)"
   class="st3 st0 st4"
   id="text14">+</text>
<path
   id="path110"
   class="st5"
   d="M242.4,155.8c0,1.6-1.3,2.9-2.9,2.9s-2.9-1.3-2.9-2.9c0-1.6,1.3-2.9,2.9-2.9  S242.4,154.2,242.4,155.8z" />
<path
   id="path114"
   class="st6"
   d="M226.9,190.3h8.9c0.2,0,0.3,0.1,0.3,0.3v3.6c0,0.2-0.1,0.3-0.3,0.3h-8.9c-0.1,0-0.3-0.1-0.3-0.3  v-3.6C226.6,190.4,226.7,190.3,226.9,190.3z" />
<path
   id="path118"
   class="st7"
   d="M223,198.1c3.5-3.5,3.5-3.7,3.5-3.7" />
<path
   id="path122"
   class="st7"
   d="M236,190.3c3.5-3.5,3.5-3.7,3.5-3.7" />
<path
   id="path126"
   class="st7"
   d="M226.6,190.3c-3.5-3.5-3.7-3.5-3.7-3.5" />
<path
   id="path130"
   class="st7"
   d="M239.7,198c-3.5-3.5-3.7-3.5-3.7-3.5" />
<path
   id="path134"
   class="st6"
   d="M203.1,136.7h8.9c0.1,0,0.3,0.1,0.3,0.3v3.6c0,0.1-0.1,0.3-0.3,0.3h-8.9c-0.2,0-0.3-0.1-0.3-0.3  V137C202.8,136.8,202.9,136.7,203.1,136.7z" />
<path
   id="path138"
   class="st7"
   d="M199.3,144.5c3.5-3.5,3.5-3.7,3.5-3.7" />
<path
   id="path142"
   class="st7"
   d="M212.2,136.7c3.5-3.5,3.5-3.7,3.5-3.7" />
<path
   id="path146"
   class="st7"
   d="M202.8,136.7c-3.5-3.5-3.7-3.5-3.7-3.5" />
<path
   id="path150"
   class="st7"
   d="M215.9,144.4c-3.5-3.5-3.7-3.5-3.7-3.5" />
<path
   id="path154"
   class="st6"
   d="M279.8,129.7h8.9c0.1,0,0.3,0.1,0.3,0.3v3.6c0,0.1-0.1,0.3-0.3,0.3h-8.9c-0.1,0-0.3-0.1-0.3-0.3  V130C279.5,129.8,279.6,129.7,279.8,129.7z" />
<path
   id="path158"
   class="st7"
   d="M276,137.5c3.5-3.5,3.5-3.7,3.5-3.7" />
<path
   id="path162"
   class="st7"
   d="M288.9,129.7c3.5-3.5,3.5-3.7,3.5-3.7" />
<path
   id="path166"
   class="st7"
   d="M279.5,129.7c-3.5-3.5-3.7-3.5-3.7-3.5" />
<path
   id="path170"
   class="st7"
   d="M292.6,137.4c-3.5-3.5-3.7-3.5-3.7-3.5" />
<path
   id="path214"
   class="st8"
   d="M440.8,344.6h5c0.1,0,0.1,0.1,0.1,0.1v2c0,0.1-0.1,0.2-0.1,0.2h-5c-0.1,0-0.2-0.1-0.2-0.2v-2  C440.6,344.7,440.7,344.6,440.8,344.6z" />
<path
   id="path218"
   class="st9"
   d="M438.6,349c2-2,2-2.1,2-2.1" />
<path
   id="path222"
   class="st9"
   d="M445.9,344.6c2-2,2-2.1,2-2.1" />
<path
   id="path226"
   class="st9"
   d="M440.6,344.6c-2-2-2.1-2-2.1-2" />
<path
   id="path230"
   class="st9"
   d="M448,349c-2-2-2.1-2-2.1-2" />
<path
   id="path234"
   class="st10"
   d="M461.8,349c0,0.9-0.7,1.6-1.6,1.6s-1.6-0.7-1.6-1.6s0.7-1.6,1.6-1.6  C461.1,347.4,461.8,348.1,461.8,349z" />
<path
   id="path238"
   class="st8"
   d="M432.3,320.6l4.8,1.3c0.1,0,0.1,0.1,0.1,0.2l-0.5,2c0,0.1-0.1,0.1-0.2,0.1l-4.8-1.3  c-0.1,0-0.1-0.1-0.1-0.2l0.5-2C432.2,320.6,432.3,320.6,432.3,320.6L432.3,320.6z" />
<path
   id="path242"
   class="st9"
   d="M429.1,324.3c2.4-1.4,2.5-1.5,2.5-1.5" />
<path
   id="path246"
   class="st9"
   d="M437.3,321.9c2.4-1.4,2.5-1.5,2.5-1.5" />
<path
   id="path250"
   class="st9"
   d="M432.2,320.6c-1.4-2.4-1.5-2.4-1.5-2.4" />
<path
   id="path254"
   class="st9"
   d="M438.2,326.7c-1.4-2.4-1.5-2.4-1.5-2.4" />
<path
   id="path258"
   class="st8"
   d="M447.3,362.6h5c0.1,0,0.2,0.1,0.2,0.1v2c0,0.1-0.1,0.2-0.2,0.2h-5c-0.1,0-0.2-0.1-0.2-0.2v-2  C447.2,362.6,447.3,362.6,447.3,362.6z" />
<path
   id="path262"
   class="st9"
   d="M445.2,367c2-2,2-2.1,2-2.1" />
<path
   id="path266"
   class="st9"
   d="M452.5,362.6c2-2,2-2.1,2-2.1" />
<path
   id="path270"
   class="st9"
   d="M447.2,362.6c-2-2-2.1-2-2.1-2" />
<path
   id="path274"
   class="st9"
   d="M454.5,366.9c-2-2-2.1-2-2.1-2" />
<path
   id="path278"
   class="st10"
   d="M439.7,354.2c0,0.9-0.7,1.6-1.6,1.6s-1.6-0.7-1.6-1.6s0.7-1.6,1.6-1.6  C439,352.5,439.7,353.3,439.7,354.2z" />
<text
   transform="matrix(-0.5 -0.866 0.866 -0.5 435.6814 363.8909)"
   class="st3 st0 st11"
   id="text49">+</text>
<text
   transform="matrix(0.866 -0.5 0.5 0.866 285.785 360.31)"
   class="st3 st0 st4"
   id="text51">_</text>
<text
   transform="matrix(-0.2588 -0.9659 0.9659 -0.2588 265.4512 381.5258)"
   class="st3 st0 st4"
   id="text53">_</text>
<path
   id="path526"
   class="st12"
   d="M185.9,575.6l-4.1,1h4.1V575.6z" />
<path
   id="path530"
   class="st13"
   d="M181.8,576.5l4.1-1" />
<path
   id="path480"
   class="st12"
   d="M496.5,564.2h9.2v9.2h-9.2V564.2z" />
<path
   id="path484"
   class="st14"
   d="M496.5,584.6h9.2v9.2h-9.2V584.6z" />
<path
   id="path486"
   class="st15"
   d="M496.5,594.6h9.2v9.2h-9.2V594.6z" />
<path
   id="path488"
   class="st16"
   d="M496.5,604.7h9.2v9.2h-9.2V604.7z" />
<path
   id="path490"
   class="st17"
   d="M496.5,614.8h9.2v9.2h-9.2V614.8z" />
<path
   id="path492"
   class="st18"
   d="M496.5,624.9h9.2v9.2h-9.2V624.9z" />
<path
   id="path494"
   class="st19"
   d="M496.5,634.9h9.2v9.2h-9.2V634.9z" />
<path
   id="path496"
   class="st20"
   d="M496.5,645h9.2v9.2h-9.2V645z" />
<path
   id="path498"
   class="st21"
   d="M496.5,655.1h9.2v9.2h-9.2V655.1z" />
<path
   id="path500"
   class="st22"
   d="M496.5,665.2h9.2v9.2h-9.2V665.2z" />
<g
   id="g658"
   transform="matrix(0.58288702,0,-0.13780706,1.1657741,133.98418,-358.24897)">
</g>
<text
   transform="matrix(1 0 0 1 275.5567 596.4736)"
   class="st0 st23"
   id="text68">m</text>
<text
   transform="matrix(1 0 0 1 276.9836 750.9404)"
   class="st0 st23"
   id="text70">α</text>
<text
   transform="matrix(-0.2588 -0.9659 0.9659 -0.2588 137.0054 276.6587)"
   class="st3 st0 st4"
   id="text72">_</text>
<path
   id="path4462"
   class="st24"
   d="M399.9,351.7c-23.7,9-50.5,14.7-78.2,16.4" />
<path
   id="path4470"
   class="st24"
   d="M443.1,184.7c36.8,25.4,52.7,59.7,43.2,93.2" />
<path
   id="path4474"
   class="st25"
   d="M133.1,215c10-15.1,25.2-28.7,44.7-39.8" />
<path
   id="path4482"
   class="st2"
   d="M149.9,328.3l-5-15l15.5,3.1L149.9,328.3z" />
<path
   id="path4486"
   class="st26"
   d="M321.2,376.3l-14.2-6.9l6.6-4.4l6.6-4.4l0.6,7.9L321.2,376.3z" />
<path
   id="path4490"
   class="st26"
   d="M482.1,292.3l-2.2-7.6l-2.2-7.6l7.7,1.9l7.7,1.9l-5.5,5.7L482.1,292.3z" />
<path
   id="path4494"
   class="st26"
   d="M332.9,155.1l0.4-7.9l0.4-7.9l6.7,4.3l6.7,4.3l-7,3.6L332.9,155.1z" />
<path
   id="path4498"
   class="st24"
   d="M295,145.1c12.6-0.3,25.2,0.1,37.7,1.4" />
<path
   id="path4512"
   class="st10"
   d="M425.6,127.4c0,0.9-0.7,1.6-1.6,1.6s-1.6-0.7-1.6-1.6c0-0.9,0.7-1.6,1.6-1.6  C424.8,125.8,425.6,126.5,425.6,127.4z" />
<path
   id="path4530"
   class="st8"
   d="M423,144.2l4.8-1.3c0.1,0,0.2,0,0.2,0.1l0.5,2c0,0.1,0,0.2-0.1,0.2l-4.8,1.3  c-0.1,0-0.2,0-0.2-0.1l-0.5-2C422.9,144.3,422.9,144.2,423,144.2L423,144.2z" />
<path
   id="path4534"
   class="st9"
   d="M422.1,149c1.4-2.4,1.4-2.5,1.4-2.5" />
<path
   id="path4538"
   class="st9"
   d="M428,142.9c1.4-2.4,1.4-2.5,1.4-2.5" />
<path
   id="path4542"
   class="st9"
   d="M422.9,144.2c-2.4-1.4-2.5-1.4-2.5-1.4" />
<path
   id="path4546"
   class="st9"
   d="M431.1,146.5c-2.4-1.4-2.5-1.4-2.5-1.4" />
<path
   id="path4564"
   class="st8"
   d="M395.9,160.5h5c0.1,0,0.2,0.1,0.2,0.2v2c0,0.1-0.1,0.2-0.2,0.2h-5c-0.1,0-0.2-0.1-0.2-0.2v-2  C395.7,160.6,395.8,160.5,395.9,160.5z" />
<path
   id="path4568"
   class="st9"
   d="M393.7,165c2-2,2-2.1,2-2.1" />
<path
   id="path4572"
   class="st9"
   d="M401,160.5c2-2,2-2.1,2-2.1" />
<path
   id="path4576"
   class="st9"
   d="M395.7,160.5c-2-2-2.1-2-2.1-2" />
<path
   id="path4580"
   class="st9"
   d="M403.1,164.9c-2-2-2.1-2-2.1-2" />
<path
   id="path4598"
   class="st10"
   d="M424.7,166.5c0,0.9-0.7,1.6-1.6,1.6s-1.6-0.7-1.6-1.6c0-0.9,0.7-1.6,1.6-1.6  S424.7,165.6,424.7,166.5z" />
<path
   id="path4616"
   class="st8"
   d="M375.3,117.3l4.8,1.3c0.1,0,0.1,0.1,0.1,0.2l-0.5,2c0,0.1-0.1,0.1-0.2,0.1l-4.8-1.3  c-0.1,0-0.1-0.1-0.1-0.2l0.5-2C375.1,117.3,375.2,117.3,375.3,117.3L375.3,117.3z" />
<path
   id="path4620"
   class="st9"
   d="M372.1,121c2.4-1.4,2.5-1.5,2.5-1.5" />
<path
   id="path4624"
   class="st9"
   d="M380.3,118.6c2.4-1.4,2.5-1.5,2.5-1.5" />
<path
   id="path4628"
   class="st9"
   d="M375.1,117.3c-1.4-2.4-1.5-2.5-1.5-2.5" />
<path
   id="path4632"
   class="st9"
   d="M381.1,123.4c-1.4-2.4-1.5-2.4-1.5-2.4" />
<path
   id="path4650"
   class="st8"
   d="M410.1,182.1h5c0.1,0,0.1,0.1,0.1,0.2v2c0,0.1-0.1,0.1-0.1,0.1h-5c-0.1,0-0.2-0.1-0.2-0.1v-2  C410,182.2,410,182.1,410.1,182.1z" />
<path
   id="path4654"
   class="st9"
   d="M408,186.5c2-2,2-2.1,2-2.1" />
<path
   id="path4658"
   class="st9"
   d="M415.3,182.1c2-2,2-2.1,2-2.1" />
<path
   id="path4662"
   class="st9"
   d="M410,182.1c-2-2-2.1-2-2.1-2" />
<path
   id="path4666"
   class="st9"
   d="M417.3,186.4c-2-2-2.1-2-2.1-2" />
<path
   id="path4684"
   class="st10"
   d="M400.7,120.8c0,0.9-0.7,1.6-1.6,1.6s-1.6-0.7-1.6-1.6s0.7-1.6,1.6-1.6  C400,119.2,400.7,119.9,400.7,120.8z" />
<path
   id="path4702"
   class="st10"
   d="M385.5,175.6c0,0.9-0.7,1.6-1.6,1.6s-1.6-0.7-1.6-1.6s0.7-1.6,1.6-1.6  C384.7,173.9,385.5,174.7,385.5,175.6z" />
<text
   transform="matrix(-0.5 0.866 -0.866 -0.5 412.3576 128.9717)"
   class="st3 st0 st11"
   id="text106">_</text>
<text
   transform="matrix(6.123234e-17 -1 1 6.123234e-17 437.2226 166.6622)"
   class="st3 st0 st11"
   id="text108">_</text>
<path
   id="path4962"
   class="st10"
   d="M473.9,303.2c0,0.9-0.7,1.6-1.6,1.6s-1.6-0.7-1.6-1.6s0.7-1.6,1.6-1.6  C473.2,301.5,473.9,302.3,473.9,303.2z" />
<path
   id="path4980"
   class="st8"
   d="M471.4,320l4.8-1.3c0.1,0,0.2,0,0.2,0.1l0.5,2c0,0.1,0,0.2-0.1,0.2l-4.8,1.3  c-0.1,0-0.2,0-0.2-0.1l-0.5-2C471.2,320.1,471.3,320,471.4,320L471.4,320z" />
<path
   id="path4984"
   class="st9"
   d="M470.4,324.8c1.4-2.4,1.4-2.5,1.4-2.5" />
<path
   id="path4988"
   class="st9"
   d="M476.3,318.7c1.4-2.4,1.4-2.5,1.4-2.5" />
<path
   id="path4992"
   class="st9"
   d="M471.2,320c-2.4-1.4-2.5-1.4-2.5-1.4" />
<path
   id="path4996"
   class="st9"
   d="M479.5,322.3c-2.4-1.4-2.5-1.4-2.5-1.4" />
<path
   id="path5014"
   class="st8"
   d="M444.2,336.3h5c0.1,0,0.2,0.1,0.2,0.2v2c0,0.1-0.1,0.1-0.2,0.1h-5c-0.1,0-0.1-0.1-0.1-0.1v-2  C444.1,336.4,444.1,336.3,444.2,336.3z" />
<path
   id="path5018"
   class="st9"
   d="M442.1,340.7c2-2,2-2.1,2-2.1" />
<path
   id="path5022"
   class="st9"
   d="M449.3,336.3c2-2,2-2.1,2-2.1" />
<path
   id="path5026"
   class="st9"
   d="M444.1,336.3c-2-2-2.1-2-2.1-2" />
<path
   id="path5030"
   class="st9"
   d="M451.4,340.7c-2-2-2.1-2-2.1-2" />
<path
   id="path5048"
   class="st10"
   d="M473.1,342.3c0,0.9-0.7,1.6-1.6,1.6s-1.6-0.7-1.6-1.6s0.7-1.6,1.6-1.6  C472.3,340.6,473.1,341.4,473.1,342.3z" />
<path
   id="path5066"
   class="st8"
   d="M423.6,293.1l4.8,1.3c0.1,0,0.1,0.1,0.1,0.2l-0.5,2c0,0.1-0.1,0.1-0.2,0.1l-4.8-1.3  c-0.1,0-0.1-0.1-0.1-0.2l0.5-2C423.5,293.1,423.6,293.1,423.6,293.1L423.6,293.1z" />
<path
   id="path5070"
   class="st9"
   d="M420.4,296.8c2.4-1.4,2.5-1.5,2.5-1.5" />
<path
   id="path5074"
   class="st9"
   d="M428.6,294.4c2.4-1.4,2.5-1.5,2.5-1.5" />
<path
   id="path5078"
   class="st9"
   d="M423.5,293c-1.4-2.4-1.5-2.5-1.5-2.5" />
<path
   id="path5082"
   class="st9"
   d="M429.5,299.1c-1.4-2.4-1.5-2.4-1.5-2.4" />
<path
   id="path5100"
   class="st8"
   d="M458.5,357.9h5c0.1,0,0.2,0.1,0.2,0.2v2c0,0.1-0.1,0.2-0.2,0.2h-5c-0.1,0-0.2-0.1-0.2-0.2v-2  C458.3,358,458.4,357.9,458.5,357.9z" />
<path
   id="path5104"
   class="st9"
   d="M456.3,362.3c2-2,2-2.1,2-2.1" />
<path
   id="path5108"
   class="st9"
   d="M463.6,357.9c2-2,2-2.1,2-2.1" />
<path
   id="path5112"
   class="st9"
   d="M458.3,357.9c-2-2-2.1-2-2.1-2" />
<path
   id="path5116"
   class="st9"
   d="M465.7,362.2c-2-2-2.1-2-2.1-2" />
<path
   id="path5134"
   class="st10"
   d="M449,296.6c0,0.9-0.7,1.6-1.6,1.6s-1.6-0.7-1.6-1.6s0.7-1.6,1.6-1.6S449,295.7,449,296.6z" />
<text
   transform="matrix(0.866 -0.5 0.5 0.866 440.3405 331.4555)"
   class="st3 st0 st11"
   id="text133">+</text>
<text
   transform="matrix(6.123234e-17 -1 1 6.123234e-17 422.1152 341.4015)"
   class="st3 st0 st11"
   id="text135">+</text>
<text
   transform="matrix(1 0 0 1 56.0436 93.357)"
   class="st0 st1"
   id="text137">A</text>
<text
   transform="matrix(1 0 0 1 95.1576 610.6592)"
   class="st0 st27"
   id="text139">0</text>
<text
   transform="matrix(1 0 0 1 156.3505 610.6654)"
   class="st0 st27"
   id="text141">1</text>
<text
   transform="matrix(1 0 0 1 216.9494 610.75)"
   class="st0 st27"
   id="text143">2</text>
<text
   transform="matrix(1 0 0 1 278.3153 610.6592)"
   class="st0 st27"
   id="text145">3</text>
<text
   transform="matrix(1 0 0 1 338.8275 610.6654)"
   class="st0 st27"
   id="text147">4</text>
<text
   transform="matrix(1 0 0 1 399.9395 610.5746)"
   class="st0 st27"
   id="text149">5</text>
<text
   transform="matrix(1 0 0 1 460.3522 610.6592)"
   class="st0 st27"
   id="text151">6</text>
<text
   transform="matrix(1 0 0 1 93.1576 453.8144)"
   class="st0 st27"
   id="text153">0</text>
<text
   transform="matrix(1 0 0 1 154.3505 453.8207)"
   class="st0 st27"
   id="text155">1</text>
<text
   transform="matrix(1 0 0 1 214.9494 453.9052)"
   class="st0 st27"
   id="text157">2</text>
<text
   transform="matrix(1 0 0 1 276.3153 453.8144)"
   class="st0 st27"
   id="text159">3</text>
<text
   transform="matrix(1 0 0 1 336.8275 453.8207)"
   class="st0 st27"
   id="text161">4</text>
<text
   transform="matrix(1 0 0 1 397.9395 453.7299)"
   class="st0 st27"
   id="text163">5</text>
<text
   transform="matrix(1 0 0 1 458.3522 453.8144)"
   class="st0 st27"
   id="text165">6</text>
<text
   transform="matrix(6.123234e-17 -1 1 6.123234e-17 54.1939 693.9738)"
   class="st0 st27"
   id="text167">r</text>
<text
   transform="matrix(6.123234e-17 -1 1 6.123234e-17 57.0435 689.2296)"
   class="st0 st27"
   id="text169">P</text>
<text
   transform="matrix(6.123234e-17 -1 1 6.123234e-17 54.1939 683.0529)"
   class="st0 st27"
   id="text171"> : r</text>
<text
   transform="matrix(6.123234e-17 -1 1 6.123234e-17 57.0435 666.4327)"
   class="st0 st27"
   id="text173">F1</text>
<text
   transform="matrix(6.123234e-17 -1 1 6.123234e-17 53.998 538.296)"
   class="st0 st27"
   id="text175">r</text>
<text
   transform="matrix(6.123234e-17 -1 1 6.123234e-17 56.8476 533.5509)"
   class="st0 st27"
   id="text177">P</text>
<text
   transform="matrix(6.123234e-17 -1 1 6.123234e-17 53.998 527.3741)"
   class="st0 st27"
   id="text179"> : r</text>
<text
   transform="matrix(6.123234e-17 -1 1 6.123234e-17 56.8476 510.754)"
   class="st0 st27"
   id="text181">F1</text>
<text
   transform="matrix(1 0 0 1 61.5697 460.3592)"
   class="st0 st27"
   id="text183">3</text>
<text
   transform="matrix(1 0 0 1 61.6609 507.5778)"
   class="st0 st27"
   id="text185">2</text>
<text
   transform="matrix(1 0 0 1 61.3419 555.3851)"
   class="st0 st27"
   id="text187">1</text>
<text
   transform="matrix(1 0 0 1 61.6241 616.1566)"
   class="st0 st27"
   id="text189">3</text>
<text
   transform="matrix(1 0 0 1 61.7153 663.3752)"
   class="st0 st27"
   id="text191">2</text>
<text
   transform="matrix(1 0 0 1 61.3962 711.1826)"
   class="st0 st27"
   id="text193">1</text>
<text
   transform="matrix(1 0 0 1 78.2268 582.6102)"
   class="st0 st28"
   id="text195">0.25</text>
<text
   transform="matrix(1 0 0 1 94.7597 582.6102)"
   class="st0 st28"
   id="text197">0.50</text>
<text
   transform="matrix(1 0 0 1 110.4708 582.6102)"
   class="st0 st28"
   id="text199">0.75</text>
<text
   transform="matrix(1 0 0 1 139.7822 582.6102)"
   class="st0 st28"
   id="text201">0.25</text>
<text
   transform="matrix(1 0 0 1 156.315 582.6102)"
   class="st0 st28"
   id="text203">0.50</text>
<text
   transform="matrix(1 0 0 1 172.0262 582.6102)"
   class="st0 st28"
   id="text205">0.75</text>
<text
   transform="matrix(1 0 0 1 200.3756 582.6102)"
   class="st0 st28"
   id="text207">0.25</text>
<text
   transform="matrix(1 0 0 1 216.9084 582.6102)"
   class="st0 st28"
   id="text209">0.50</text>
<text
   transform="matrix(1 0 0 1 232.6195 582.6102)"
   class="st0 st28"
   id="text211">0.75</text>
<text
   transform="matrix(1 0 0 1 260.5662 582.6102)"
   class="st0 st28"
   id="text213">0.25</text>
<text
   transform="matrix(1 0 0 1 277.099 582.6102)"
   class="st0 st28"
   id="text215">0.50</text>
<text
   transform="matrix(1 0 0 1 292.8102 582.6102)"
   class="st0 st28"
   id="text217">0.75</text>
<text
   transform="matrix(1 0 0 1 320.2737 582.6102)"
   class="st0 st28"
   id="text219">0.25</text>
<text
   transform="matrix(1 0 0 1 336.8065 582.6102)"
   class="st0 st28"
   id="text221">0.50</text>
<text
   transform="matrix(1 0 0 1 352.5176 582.6102)"
   class="st0 st28"
   id="text223">0.75</text>
<text
   transform="matrix(1 0 0 1 382.4407 582.6102)"
   class="st0 st28"
   id="text225">0.25</text>
<text
   transform="matrix(1 0 0 1 398.9735 582.6102)"
   class="st0 st28"
   id="text227">0.50</text>
<text
   transform="matrix(1 0 0 1 414.6847 582.6102)"
   class="st0 st28"
   id="text229">0.75</text>
<text
   transform="matrix(1 0 0 1 443.8514 582.6102)"
   class="st0 st28"
   id="text231">0.25</text>
<text
   transform="matrix(1 0 0 1 460.3843 582.6102)"
   class="st0 st28"
   id="text233">0.50</text>
<text
   transform="matrix(1 0 0 1 476.0954 582.6102)"
   class="st0 st28"
   id="text235">0.75</text>
<text
   transform="matrix(1 0 0 1 68.9351 737.412)"
   class="st0 st28"
   id="text237">0.01</text>
<text
   transform="matrix(1 0 0 1 88.1863 737.412)"
   class="st0 st28"
   id="text239">0.03</text>
<text
   transform="matrix(1 0 0 1 109.432 737.412)"
   class="st0 st28"
   id="text241">0.10</text>
<text
   transform="matrix(1 0 0 1 129.5735 737.412)"
   class="st0 st28"
   id="text243">0.01</text>
<text
   transform="matrix(1 0 0 1 148.8246 737.412)"
   class="st0 st28"
   id="text245">0.03</text>
<text
   transform="matrix(1 0 0 1 170.0704 737.412)"
   class="st0 st28"
   id="text247">0.10</text>
<text
   transform="matrix(1 0 0 1 190.2632 737.412)"
   class="st0 st28"
   id="text249">0.01</text>
<text
   transform="matrix(1 0 0 1 209.5143 737.412)"
   class="st0 st28"
   id="text251">0.03</text>
<text
   transform="matrix(1 0 0 1 230.7601 737.412)"
   class="st0 st28"
   id="text253">0.10</text>
<text
   transform="matrix(1 0 0 1 251.5244 737.412)"
   class="st0 st28"
   id="text255">0.01</text>
<text
   transform="matrix(1 0 0 1 270.7756 737.412)"
   class="st0 st28"
   id="text257">0.03</text>
<text
   transform="matrix(1 0 0 1 292.0213 737.412)"
   class="st0 st28"
   id="text259">0.10</text>
<text
   transform="matrix(1 0 0 1 311.9237 737.412)"
   class="st0 st28"
   id="text261">0.01</text>
<text
   transform="matrix(1 0 0 1 331.1748 737.412)"
   class="st0 st28"
   id="text263">0.03</text>
<text
   transform="matrix(1 0 0 1 352.4206 737.412)"
   class="st0 st28"
   id="text265">0.10</text>
<text
   transform="matrix(1 0 0 1 372.3075 737.412)"
   class="st0 st28"
   id="text267">0.01</text>
<text
   transform="matrix(1 0 0 1 391.5587 737.412)"
   class="st0 st28"
   id="text269">0.03</text>
<text
   transform="matrix(1 0 0 1 412.8044 737.412)"
   class="st0 st28"
   id="text271">0.10</text>
<text
   transform="matrix(1 0 0 1 432.5906 737.412)"
   class="st0 st28"
   id="text273">0.01</text>
<text
   transform="matrix(1 0 0 1 451.8417 737.412)"
   class="st0 st28"
   id="text275">0.03</text>
<text
   transform="matrix(1 0 0 1 473.0874 737.412)"
   class="st0 st28"
   id="text277">0.10</text>
<text
   transform="matrix(1 0 0 1 56.9096 231.3145)"
   class="st29 st0 st1"
   id="text279">Induced death,</text>
<text
   transform="matrix(1 0 0 1 56.9096 242.1145)"
   class="st29 st0 st1"
   id="text281">growth arrest,</text>
<text
   transform="matrix(1 0 0 1 56.9096 252.9145)"
   class="st29 st0 st1"
   id="text283">F1 generation</text>
<text
   transform="matrix(1 0 0 1 202.8018 102.9114)"
   class="st29 st0 st1"
   id="text285">F1 growth, dispersion</text>
<text
   transform="matrix(1 0 0 1 421.4735 106.3273)"
   class="st29 st0 st1"
   id="text287">Vegetative growth,</text>
<text
   transform="matrix(1 0 0 1 431.0735 117.1273)"
   class="st29 st0 st1"
   id="text289">size reduction</text>
<text
   transform="matrix(1 0 0 1 472.2914 312.9789)"
   class="st29 st0 st1"
   id="text291">Local accumulation</text>
<text
   transform="matrix(1 0 0 1 255.0086 403.5529)"
   class="st29 st0 st1"
   id="text293">MT perception,</text>
<text
   transform="matrix(1 0 0 1 246.5086 414.3529)"
   class="st29 st0 st1"
   id="text295">gametangia pairing</text>
<text
   transform="matrix(1 0 0 1 509.8271 561.3)"
   class="st0 st27"
   id="text297">No F1 growth</text>
<path
   id="path480_1_"
   class="st30"
   d="M496.5,554.1h9.2v9.2h-9.2V554.1z" />
<path
   class="st31"
   d="M287,211.8c-3.4-1.2-15.1-40.3-15.1-44.9C278.9,181.2,283,196.4,287,211.8"
   id="path300" />
<path
   class="st32"
   d="M156.6,258.8c-0.9-4.6,0.7-8.3,2.6-11.8C161.1,249.2,158.7,256.1,156.6,258.8"
   id="path302" />
<path
   class="st33"
   d="M119.2,236.3c2.6,7.1,1.6,14,0.7,21.2c-1.1-1.6-1.7-3.5-1.8-5.5C117.7,246.8,118.1,241.5,119.2,236.3"
   id="path304" />
<path
   class="st33"
   d="M259.3,110.1c7,2.9,11.4,8.4,16,14c-1.9-0.3-3.7-1.2-5.2-2.4C265.9,118.4,262.3,114.5,259.3,110.1"
   id="path306" />
<path
   class="st34"
   d="M143.1,223.4c-0.9,1.6-2.3,2.8-4,3.5c-3.1,1.5-6.4,2.5-9.8,3.1c-1.2,0.2-2.4,0.4-3.6,0.5  C130.7,225.5,136.9,224.5,143.1,223.4"
   id="path308" />
<path
   class="st35"
   d="M140.3,283.6c-4.2,1.7-7.3-0.8-10.6-2.9C132.5,279.2,136.4,280.7,140.3,283.6"
   id="path310" />
<path
   class="st34"
   d="M258.5,127.3c-0.9,1.6-2.3,2.8-4,3.5c-3.1,1.5-6.4,2.5-9.8,3.1c-1.2,0.2-2.4,0.4-3.6,0.5  C246.1,129.4,252.3,128.4,258.5,127.3"
   id="path312" />
<path
   class="st35"
   d="M267.8,154.5c-4.2,1.7-7.3-0.8-10.6-2.9C260,150.1,263.9,151.6,267.8,154.5"
   id="path314" />
<path
   class="st33"
   d="M119.4,292.4c-0.3-7.6,2.8-13.9,5.9-20.4c0.5,1.9,0.5,3.9,0,5.8C124,282.9,122,287.8,119.4,292.4"
   id="path316" />
<path
   class="st33"
   d="M201.1,183.9c-0.3-7.6,2.8-13.9,5.9-20.4c0.5,1.9,0.5,3.9,0,5.8C205.7,174.4,203.7,179.3,201.1,183.9"
   id="path318" />
<path
   class="st35"
   d="M219.6,164.2c-1.2-4.5,0.6-8,2.3-11.6C223.7,154.4,222.2,160.3,219.6,164.2"
   id="path320" />
<path
   class="st35"
   d="M242.4,179.6c-1.2-4.6,0.6-8.2,2.4-11.9C246.6,169.6,245.1,175.7,242.4,179.6"
   id="path322" />
<path
   class="st31"
   d="M268.9,139.6c-1.7,3.1-42.1,8.6-46.7,7.8C237.4,142.8,253,141.1,268.9,139.6"
   id="path324" />
<path
   class="st31"
   d="M235.3,204.9c-0.6-3.5,28.4-32.2,32.6-34.4C258.4,183.4,247,194.1,235.3,204.9"
   id="path326" />
<path
   class="st31"
   d="M216.3,145c-0.6-3.5,28.4-32.2,32.6-34.4C239.5,123.5,228,134.2,216.3,145"
   id="path328" />
<path
   class="st34"
   d="M229.7,116.7c-0.9,1.6-2.3,2.8-4,3.5c-3.1,1.5-6.4,2.5-9.8,3.1c-1.2,0.2-2.4,0.4-3.6,0.5  C217.3,118.8,223.5,117.8,229.7,116.7"
   id="path330" />
<path
   class="st31"
   d="M127.2,262.1c-0.6-3.5,28.4-32.2,32.6-34.4C150.4,240.5,138.9,251.3,127.2,262.1"
   id="path332" />
<path
   class="st31"
   d="M162.8,298.7c-3.4-1.2-15.1-40.3-15.1-44.9C154.6,268.1,158.8,283.3,162.8,298.7"
   id="path334" />
<path
   class="st35"
   d="M121.1,239.4c3.1,3.3,1.9,7.1,1.1,10.9C119.8,248.3,119.8,244.1,121.1,239.4"
   id="path336" />
<path
   class="st35"
   d="M238.1,351.1c3.1,3.3,1.9,7.1,1.1,10.9C236.8,359.9,236.8,355.8,238.1,351.1"
   id="path338" />
<path
   class="st33"
   d="M235.5,346.1c2.6,7.1,1.6,14,0.7,21.2c-1.1-1.6-1.7-3.5-1.8-5.5C234.1,356.6,234.4,351.3,235.5,346.1"
   id="path340" />
<path
   class="st33"
   d="M251.8,362c2.6,7.1,1.6,14,0.7,21.2c-1.1-1.6-1.7-3.5-1.8-5.5C250.4,372.5,250.7,367.2,251.8,362"
   id="path342" />
<path
   class="st35"
   d="M260.7,377.5c4.4,1.3,5.2,5.1,6.5,8.8C264,385.8,261.9,382.2,260.7,377.5"
   id="path344" />
<path
   class="st35"
   d="M279.2,372.6c4.3,1.3,5.2,5.2,6.4,8.9C282.4,381,280.3,377.4,279.2,372.6"
   id="path346" />
<path
   class="st33"
   d="M274.5,369.6c5.8,4.8,8.4,11.4,11.2,18c-1.8-0.9-3.2-2.2-4.3-3.9C278.4,379.5,276.1,374.7,274.5,369.6"
   id="path348" />
<path
   class="st35"
   d="M287,357.5c0.2,4.5-3.2,6.6-6.3,9C280.2,363.3,282.9,360.2,287,357.5"
   id="path350" />
<path
   class="st33"
   d="M266.9,337.5c-4.2,6.3-10.5,9.5-16.8,13c0.7-1.8,1.9-3.4,3.4-4.6C257.5,342.4,262.1,339.6,266.9,337.5"
   id="path352" />
<path
   class="st35"
   d="M274.6,351.7c0.9,4.5-2.1,7-4.8,9.8C268.8,358.5,271,354.9,274.6,351.7"
   id="path354" />
<path
   class="st33"
   d="M275.1,346.1c-1.5,7.4-6.1,12.8-10.7,18.4c-0.1-2,0.4-3.9,1.4-5.6C268.3,354.2,271.4,349.9,275.1,346.1"
   id="path356" />
<path
   class="st36"
   d="M447.1,148.8c1.1,1.4,1.8,3.2,1.9,5c0.3,3.4,0.1,6.9-0.6,10.3c-0.2,1.2-0.5,2.4-0.8,3.5  C444.7,161.2,446,155,447.1,148.8"
   id="path358" />
<path
   id="path4474_1_"
   class="st25"
   d="M205.3,356c-17.2-5.8-34.2-16.9-50-32.9" />
<path
   class="st37"
   d="M359.4,179.5c-3.1-3.4-1.8-7.1-0.9-10.9C360.9,170.6,360.8,174.8,359.4,179.5"
   id="path361" />
<path
   class="st36"
   d="M371.5,153.4c1.1,1.4,1.8,3.2,1.9,5c0.3,3.4,0.1,6.9-0.6,10.3c-0.2,1.2-0.5,2.4-0.8,3.5  C369.1,165.8,370.3,159.6,371.5,153.4"
   id="path363" />
<path
   class="st36"
   d="M372,187c1.7,0.6,3.2,1.7,4.3,3.2c2.1,2.7,3.8,5.8,5,9c0.5,1.1,0.9,2.3,1.2,3.4  C376.6,198.7,374.4,192.9,372,187"
   id="path365" />
<path
   class="st37"
   d="M386.5,189.3c0.6-4.5,4.3-5.9,7.8-7.7C394.2,184.7,391,187.4,386.5,189.3"
   id="path367" />
<path
   class="st37"
   d="M406.9,139.4c-3.1-3.4-1.8-7.1-0.9-10.9C408.4,130.5,408.3,134.7,406.9,139.4"
   id="path369" />
<path
   class="st37"
   d="M372.2,145.4c-1.1-4.4,1.8-7.1,4.4-10C377.7,138.4,375.6,142,372.2,145.4"
   id="path371" />
<path
   class="st36"
   d="M363.4,119.7c0.8,1.6,1.1,3.5,0.8,5.3c-0.4,3.4-1.4,6.8-2.7,9.9c-0.4,1.1-0.9,2.2-1.5,3.3  C358.4,131.3,360.9,125.6,363.4,119.7"
   id="path373" />
<path
   class="st36"
   d="M380.3,102.1c-0.9,1.6-2.3,2.9-3.9,3.6c-3.1,1.6-6.3,2.7-9.7,3.4c-1.2,0.3-2.4,0.5-3.6,0.6  C368,104.6,374.2,103.4,380.3,102.1"
   id="path375" />
<path
   class="st36"
   d="M396.5,144.7c-0.1,1.8-0.8,3.5-2,5c-2.1,2.7-4.6,5.2-7.3,7.2c-0.9,0.8-1.9,1.5-3,2.1  C386.4,152.2,391.5,148.5,396.5,144.7"
   id="path377" />
<path
   class="st37"
   d="M431.3,182.2c-1.1-4.4,1.8-7.1,4.4-10C436.9,175.2,434.8,178.8,431.3,182.2"
   id="path379" />
<path
   class="st36"
   d="M403,291.6c1.4,1.2,2.4,2.7,2.9,4.5c1,3.3,1.5,6.7,1.6,10.2c0.1,1.2,0,2.4-0.1,3.6  C403.2,304.2,403.2,297.9,403,291.6"
   id="path381" />
<path
   class="st37"
   d="M416.5,317.6c0.6-4.5,4.3-5.9,7.8-7.7C424.2,313.1,421,315.7,416.5,317.6"
   id="path383" />
<path
   class="st37"
   d="M455.3,310.6c-1.4-4.3,1.3-7.2,3.6-10.3C460.4,303.2,458.6,307,455.3,310.6"
   id="path385" />
<path
   class="st36"
   d="M426.6,273.2c-0.5,1.7-1.5,3.3-2.9,4.5c-2.6,2.2-5.5,4.1-8.7,5.6c-1.1,0.6-2.2,1-3.3,1.4  C415.2,278.5,420.9,275.9,426.6,273.2"
   id="path387" />
<path
   class="st37"
   d="M480.7,347.8c-1.4-4.3,1.3-7.2,3.6-10.3C485.7,340.3,483.9,344.1,480.7,347.8"
   id="path389" />
<path
   class="st37"
   d="M428.5,336.7c-1.4-4.3,1.3-7.2,3.6-10.3C433.5,329.3,431.7,333.1,428.5,336.7"
   id="path391" />
<path
   class="st37"
   d="M414.3,358c-3.3-3.1-2.3-7-1.7-10.8C415.1,349.1,415.4,353.3,414.3,358"
   id="path393" />
<path
   class="st37"
   d="M441.6,359.8c0.5-4.5,4.1-6.1,7.5-8C449.1,355,446,357.7,441.6,359.8"
   id="path395" />
<path
   class="st37"
   d="M451.6,332.7c-1.4-4.3,1.3-7.2,3.6-10.3C456.6,325.3,454.9,329.1,451.6,332.7"
   id="path397" />
<path
   class="st37"
   d="M457.3,335.5c4.5-0.3,6.7,3,9.1,6.1C463.2,342.2,460,339.5,457.3,335.5"
   id="path399" />
<path
   class="st36"
   d="M452.1,336.6c1.4,1.2,2.4,2.7,2.9,4.5c1,3.3,1.5,6.7,1.6,10.2c0.1,1.2,0,2.4-0.1,3.6  C452.3,349.2,452.2,342.9,452.1,336.6"
   id="path401" />
<path
   class="st36"
   d="M429,357.7c1.8,0.4,3.4,1.4,4.6,2.8c2.3,2.5,4.3,5.4,5.9,8.4c0.6,1.1,1.1,2.2,1.5,3.3  C434.8,368.9,432,363.2,429,357.7"
   id="path403" />
<path
   class="st36"
   d="M422.9,357.9c1.4,1.2,2.4,2.7,2.9,4.5c1,3.3,1.5,6.7,1.6,10.2c0.1,1.2,0,2.4-0.1,3.6  C423.1,370.5,423.1,364.2,422.9,357.9"
   id="path405" />
<path
   class="st36"
   d="M430.7,338c0.8,1.6,1.1,3.5,0.8,5.3c-0.4,3.4-1.3,6.8-2.7,9.9c-0.4,1.1-0.9,2.2-1.5,3.3  C425.8,349.6,428.3,343.8,430.7,338"
   id="path407" />
<path
   class="st36"
   d="M449.5,326.7c-0.9,1.6-2.2,2.9-3.8,3.7c-3,1.7-6.3,2.9-9.6,3.6c-1.2,0.3-2.4,0.5-3.6,0.7  C437.2,329.5,443.4,328.2,449.5,326.7"
   id="path409" />
<path
   id="path444"
   d="M207.7,456.4l-0.2,1.4l-0.6,3.4l-0.8,4.8l-0.8,4.8l-0.8,4.8l-0.8,4.8L203,485l-0.8,4.8l-0.8,4.8l-0.6,3.5  l-0.2,1.3l-0.7,4.8l-0.7,4.8l-0.7,4.8l-0.7,4.8l-2.2,14.3l-0.7,4.8l-0.5,3.4v-84.5L207.7,456.4z" />
<path
   id="path446"
   d="M133.6,456.4h52.4v119.3h-52.4V456.4z" />
<path
   id="path526_1_"
   class="st12"
   d="M185.9,574.7l-4.1,1h4.1V574.7z" />
<path
   id="path530_1_"
   class="st13"
   d="M181.8,575.6l4.1-1" />
<path
   id="path532"
   class="st12"
   d="M207.7,456.4l-0.2,1.4l-0.6,3.4l-0.8,4.8l-0.8,4.8l-0.8,4.8l-0.8,4.8L203,485l-0.8,4.8l-0.8,4.8  l-0.6,3.5l-0.2,1.3l-0.7,4.8l-0.7,4.8l-0.7,4.8l-0.7,4.8l-2.2,14.3l-0.7,4.8l-0.5,3.4v34.8H212l2-2.3l2.6-2.5l3.9-4.3l0.5-0.5  l4.3-4.8l1.7-2.2l2.4-2.6l3.9-4.8l0.3-0.4l3.6-4.4l3-3.9l0.7-0.9l3.6-4.8l2.2-3v-78.1H207.7z" />
<path
   id="path534"
   class="st38"
   d="M246.7,534.4l-2.2,3l-3.6,4.8l-0.7,0.9l-3,3.9l-3.6,4.4l-0.3,0.4l-3.9,4.8l-2.4,2.6l-1.7,2.2  l-4.3,4.8l-0.5,0.5l-3.9,4.3l-2.6,2.5l-2,2.3h26.5l1.7-0.9l6.5-3.1L246.7,534.4z" />
<path
   id="path536"
   class="st14"
   d="M246.7,571.6l-6.5,3.1l-1.7,0.9h8.2V571.6z" />
<path
   id="path540"
   class="st13"
   d="M194.4,540.9l0.5-3.4l0.7-4.8l2.2-14.3l0.7-4.8l0.7-4.8l0.7-4.8l0.7-4.8l0.2-1.3l0.6-3.5l0.8-4.8  l0.8-4.8l0.8-4.8l0.8-4.8l0.8-4.8l0.8-4.8l0.8-4.8l0.6-3.4l0.2-1.4" />
<path
   id="path544"
   class="st13"
   d="M212,575.6l2-2.3l2.6-2.5l3.9-4.3l0.5-0.5l4.3-4.8l1.7-2.2l2.4-2.6l3.9-4.8l0.3-0.4l3.6-4.4  l3-3.9l0.7-0.9l3.6-4.8l2.2-3" />
<path
   id="path548"
   class="st13"
   d="M238.5,575.6l1.7-0.9l6.5-3.1" />
<path
   id="path550"
   class="st12"
   d="M283.4,456.4h-28.2v119.3h5.6l1-2.7l0.9-2.1l1.8-4.8l1.6-4.8l1.4-4.8l0.8-3.1l0.5-1.7l1.3-4.8  l1.1-4.8l1-4.8l0.9-4.8l0.9-4.8l0.8-4.8l0-0.2l0.8-4.6l0.8-4.8l0.7-4.8l0.7-4.8l0.7-4.8l0.6-4.8l0.6-4.8l0.6-4.8l0.5-4.8l0.5-4.8  l0-0.4l0.5-4.3l0.5-4.8l0.5-4.8L283.4,456.4z" />
<path
   id="path552"
   class="st38"
   d="M283.4,456.4l-0.5,4.8l-0.5,4.8l-0.5,4.8l-0.5,4.3l0,0.4l-0.5,4.8l-0.5,4.8l-0.6,4.8l-0.6,4.8  l-0.6,4.8l-0.7,4.8l-0.7,4.8l-0.7,4.8l-0.8,4.8l-0.8,4.6l0,0.2l-0.8,4.8l-0.9,4.8l-0.9,4.8l-1,4.8L270,547l-1.3,4.8l-0.5,1.7  l-0.8,3.1l-1.4,4.8l-1.6,4.8l-1.8,4.8l-0.9,2.1l-1,2.7h15.1l4.7-4.8l0.8-1l3.9-3.8l2.7-3l1.9-1.8l4.6-4.8l0.1-0.1l4.5-4.7l2.1-2.4  l2.4-2.4l4.2-4.6v-86.1H283.4z" />
<path
   id="path554"
   class="st14"
   d="M307.5,542.4l-4.2,4.6l-2.4,2.4l-2.1,2.4l-4.5,4.7l-0.1,0.1l-4.6,4.8l-1.9,1.8l-2.7,3l-3.9,3.8  l-0.8,1l-4.7,4.8h16.3l2.3-1.6l5.5-3.2l1.1-0.7l6.5-3.8L307.5,542.4z" />
<path
   id="path556"
   class="st15"
   d="M307.5,566.3l-6.5,3.8l-1.1,0.7l-5.5,3.2l-2.3,1.6h15.4V566.3z" />
<path
   id="path560"
   class="st13"
   d="M260.7,575.6l1-2.7l0.9-2.1l1.8-4.8l1.6-4.8l1.4-4.8l0.8-3.1l0.5-1.7l1.3-4.8l1.1-4.8l1-4.8  l0.9-4.8l0.9-4.8l0.8-4.8l0-0.2l0.8-4.6l0.8-4.8l0.7-4.8l0.7-4.8l0.7-4.8l0.6-4.8l0.6-4.8l0.6-4.8l0.5-4.8l0.5-4.8l0-0.4l0.5-4.3  l0.5-4.8l0.5-4.8l0.5-4.8" />
<path
   id="path564"
   class="st13"
   d="M275.9,575.6l4.7-4.8l0.8-1l3.9-3.8l2.7-3l1.9-1.8l4.6-4.8l0.1-0.1l4.5-4.7l2.1-2.4l2.4-2.4  l4.2-4.6" />
<path
   id="path568"
   class="st13"
   d="M292.2,575.6l2.3-1.6l5.5-3.2l1.1-0.7l6.5-3.8" />
<path
   id="path784"
   class="st12"
   d="M316,456.4v119.3h1.1l1.2-4.8l1.1-4.8l0.9-4.8l0.8-4.8l0.7-4.8l0.6-4.8l0.1-1l0.5-3.8l0.6-4.8  l0.5-4.8l0.5-4.8l0.4-4.8l0.4-4.8l0.4-4.8l0.3-4.8l0.3-4.8l0.3-4.8l0.3-4.8l0.2-4.8l0.2-4.8l0.2-4.8l0.2-4.8l0.2-4.8l0.2-4.8  l0.2-4.8l0.2-4.8L316,456.4z" />
<path
   id="path786"
   class="st38"
   d="M328.6,456.4l-0.2,4.8l-0.2,4.8l-0.2,4.8l-0.2,4.8l-0.2,4.8l-0.2,4.8l-0.2,4.8l-0.2,4.8l-0.3,4.8  l-0.3,4.8l-0.3,4.8l-0.3,4.8l-0.4,4.8l-0.4,4.8l-0.4,4.8l-0.5,4.8l-0.5,4.8l-0.6,4.8l-0.5,3.8l-0.1,1l-0.6,4.8l-0.7,4.8l-0.8,4.8  l-0.9,4.8l-1.1,4.8l-1.2,4.8h10l2-3.9l0.6-0.9l2.6-4.8l2.5-4.8l0.8-1.7l1.7-3.1l2.4-4.8l2.2-4.8l0.2-0.6l2-4.2l2.1-4.8l1.9-4.8  l0.6-1.5l1.4-3.2l1.9-4.8l1.8-4.8l1.5-4.4l0.2-0.4l1.8-4.8l1.7-4.8l1.6-4.8l1.3-4.1l0.2-0.7l1.6-4.8l1.6-4.8l1.5-4.8l1.5-4.8l0,0  v-19.1L328.6,456.4z" />
<path
   id="path788"
   class="st14"
   d="M368.3,475.4l-1.5,4.8l-1.5,4.8l-1.6,4.8l-1.6,4.8l-0.2,0.7l-1.3,4.1l-1.6,4.8l-1.7,4.8l-1.8,4.8  l-0.2,0.4l-1.5,4.4l-1.8,4.8l-1.9,4.8l-1.4,3.2l-0.6,1.5l-1.9,4.8l-2.1,4.8l-2,4.2l-0.2,0.6l-2.2,4.8l-2.4,4.8l-1.7,3.1l-0.8,1.7  l-2.5,4.8l-2.6,4.8l-0.6,0.9l-2,3.9h10.6l4.4-4.8l0.2-0.2l4.3-4.6l2.2-2.4l2.4-2.4l4.1-4.2l0.7-0.6l4.9-4.8l1-1l3.9-3.7l2.6-2.6  L368.3,475.4L368.3,475.4z" />
<path
   id="path790"
   class="st15"
   d="M368.3,544.4l-2.6,2.6l-3.9,3.7l-1,1l-4.9,4.8l-0.7,0.6l-4.1,4.2l-2.4,2.4l-2.2,2.4l-4.3,4.6  l-0.2,0.2l-4.4,4.8h10.7l0.4-0.3l5.4-4.4l1.2-1l4.8-3.8l1.8-1.4l4.5-3.3l2.1-1.6L368.3,544.4z" />
<path
   id="path792"
   class="st16"
   d="M368.3,559.7l-2.1,1.6l-4.5,3.3l-1.8,1.4l-4.8,3.8l-1.2,1l-5.4,4.4l-0.4,0.3h10.3l3.1-2.3  l3.5-2.5l3-2.2V559.7z" />
<path
   id="path794"
   class="st17"
   d="M368.3,568.7l-3,2.2l-3.5,2.5l-3.1,2.3h9.7V568.7z" />
<path
   id="path798"
   class="st13"
   d="M317,575.6l1.2-4.8l1.1-4.8l0.9-4.8l0.8-4.8l0.7-4.8l0.6-4.8l0.1-1l0.5-3.8l0.6-4.8l0.5-4.8  l0.5-4.8l0.4-4.8l0.4-4.8l0.4-4.8l0.3-4.8l0.3-4.8l0.3-4.8l0.3-4.8l0.2-4.8l0.2-4.8l0.2-4.8l0.2-4.8l0.2-4.8l0.2-4.8l0.2-4.8  l0.2-4.8" />
<path
   id="path802"
   class="st13"
   d="M327,575.6l2-3.9l0.6-0.9l2.6-4.8l2.5-4.8l0.8-1.7l1.7-3.1l2.4-4.8l2.2-4.8l0.2-0.6l2-4.2  l2.1-4.8l1.9-4.8l0.6-1.5l1.4-3.2l1.9-4.8l1.8-4.8l1.5-4.4l0.2-0.4l1.8-4.8l1.7-4.8l1.6-4.8l1.3-4.1l0.2-0.7l1.6-4.8l1.6-4.8  l1.5-4.8l1.5-4.8l0,0" />
<path
   id="path806"
   class="st13"
   d="M337.6,575.6l4.4-4.8l0.2-0.2l4.3-4.6l2.2-2.4l2.4-2.4l4.1-4.2l0.7-0.6l4.9-4.8l1-1l3.9-3.7  l2.6-2.6" />
<path
   id="path810"
   class="st13"
   d="M348.3,575.6l0.4-0.3l5.4-4.4l1.2-1l4.8-3.8l1.8-1.4l4.5-3.3l2.1-1.6" />
<path
   id="path814"
   class="st13"
   d="M358.7,575.6l3.1-2.3l3.5-2.5l3-2.2" />
<path
   id="path816"
   class="st12"
   d="M376.8,456.4v108l0.4-3l0.6-4.8l0.5-4.8l0.4-4.8l0.4-4.8l0.3-4.8l0.3-4.8l0.3-4.8l0.2-4.8  l0.2-4.8l0.2-4.8l0.2-4.8l0.2-4.8l0.2-4.8l0.1-4.8l0.1-4.8l0.1-4.8l0.1-4.8l0.1-4.8l0.1-4.8l0.1-4.8l0.1-4.8l0.1-4.8L376.8,456.4z" />
<path
   id="path818"
   class="st38"
   d="M406.3,456.4h-24.2l-0.1,4.8l-0.1,4.8l-0.1,4.8l-0.1,4.8l-0.1,4.8l-0.1,4.8l-0.1,4.8l-0.1,4.8  l-0.1,4.8l-0.2,4.8l-0.2,4.8l-0.2,4.8l-0.2,4.8l-0.2,4.8l-0.2,4.8l-0.3,4.8l-0.3,4.8l-0.3,4.8l-0.4,4.8l-0.4,4.8l-0.5,4.8l-0.6,4.8  l-0.4,3v11.3h5.5l1.1-3.4l0.5-1.3l1.6-4.8l1.5-4.8l1.5-4.8l1.4-4.8l0.1-0.3l1.3-4.5l1.3-4.8l1.2-4.8l1.1-4.8l1-4.8l0.7-3.6l0.3-1.2  l1-4.8l0.9-4.8l0.8-4.8l0.8-4.8l0.7-4.8l0.7-4.8l0.6-4.8l0.6-4.8l0.2-1.6l0.5-3.2l0.6-4.8l0.6-4.8l0.6-4.8l0.6-4.8L406.3,456.4z" />
<path
   id="path820"
   class="st14"
   d="M429.1,456.4h-22.8l-0.5,4.8l-0.6,4.8l-0.6,4.8l-0.6,4.8l-0.6,4.8l-0.5,3.2l-0.2,1.6l-0.6,4.8  l-0.6,4.8l-0.7,4.8l-0.7,4.8l-0.8,4.8l-0.8,4.8l-0.9,4.8l-1,4.8l-0.3,1.2l-0.7,3.6l-1,4.8l-1.1,4.8l-1.2,4.8l-1.3,4.8l-1.3,4.5  l-0.1,0.3l-1.4,4.8l-1.5,4.8l-1.5,4.8l-1.6,4.8l-0.5,1.3l-1.1,3.4h7.5l0.2-0.3l2.4-4.4l2.6-4.8l1.5-2.8l1.2-2l2.7-4.8l2.6-4.5  l0.2-0.3l2.8-4.8l2.9-4.8l0.7-1.3l2.1-3.4l2.9-4.8l1.6-2.7l1.3-2l2.9-4.8l2.4-4l0.5-0.8l2.8-4.8l2.9-4.8l0.3-0.6V456.4z" />
<path
   id="path822"
   class="st15"
   d="M429.1,508.3l-0.3,0.6l-2.9,4.8l-2.8,4.8l-0.5,0.8l-2.4,4l-2.9,4.8l-1.3,2l-1.6,2.7l-2.9,4.8  l-2.1,3.4l-0.7,1.3l-2.9,4.8l-2.8,4.8l-0.2,0.3l-2.6,4.5l-2.7,4.8l-1.2,2l-1.5,2.8l-2.6,4.8l-2.4,4.4l-0.2,0.3h7.6l3.4-4.8l2.2-3.1  l1.3-1.7l3.6-4.8l1.6-2.2l2.1-2.6l3.9-4.8l0.6-0.7l3.3-4.1l3.2-3.8l0.9-1l4.1-4.8l1.6-1.8L429.1,508.3z" />
<path
   id="path824"
   class="st16"
   d="M429.1,535.6l-1.6,1.8l-4.1,4.8l-0.9,1l-3.2,3.8l-3.3,4.1l-0.6,0.7l-3.9,4.8l-2.1,2.6l-1.6,2.2  l-3.6,4.8l-1.3,1.7l-2.2,3.1l-3.4,4.8h7.6l4-4.8l0.6-0.7l3.5-4l3.1-3.5l1.2-1.3l4.3-4.8l1.1-1.2l3.3-3.6l3.2-3.4L429.1,535.6z" />
<path
   id="path826"
   class="st17"
   d="M429.1,548.3l-3.2,3.4l-3.3,3.6l-1.1,1.2l-4.3,4.8l-1.2,1.3l-3.1,3.5l-3.5,4l-0.6,0.7l-4,4.8h7.5  l3.6-4l0.7-0.8l4.4-4.8l1.4-1.5l3.2-3.3l3.4-3.5L429.1,548.3z" />
<path
   id="path828"
   class="st18"
   d="M429.1,557.8l-3.4,3.5l-3.2,3.3l-1.4,1.5l-4.4,4.8l-0.7,0.8l-3.6,4h7.4l2.7-2.9l1.9-1.9l4.7-4.8  l0,0V557.8z" />
<path
   id="path830"
   class="st19"
   d="M429.1,566.1L429.1,566.1l-4.7,4.8l-1.9,1.9l-2.7,2.9h7.4l1.9-1.9V566.1z" />
<path
   id="path832"
   class="st20"
   d="M429.1,573.7l-1.9,1.9h1.9V573.7z" />
<path
   id="path836"
   class="st13"
   d="M376.8,564.3l0.4-3l0.6-4.8l0.5-4.8l0.4-4.8l0.4-4.8l0.3-4.8l0.3-4.8l0.3-4.8l0.2-4.8l0.2-4.8  l0.2-4.8l0.2-4.8l0.2-4.8l0.2-4.8l0.1-4.8l0.1-4.8l0.1-4.8l0.1-4.8l0.1-4.8l0.1-4.8l0.1-4.8l0.1-4.8l0.1-4.8" />
<path
   id="path840"
   class="st13"
   d="M382.2,575.6l1.1-3.4l0.5-1.3l1.6-4.8l1.5-4.8l1.5-4.8l1.4-4.8l0.1-0.3l1.3-4.5l1.3-4.8l1.2-4.8  l1.1-4.8l1-4.8l0.7-3.6l0.3-1.2l1-4.8l0.9-4.8l0.8-4.8l0.8-4.8l0.7-4.8l0.7-4.8l0.6-4.8l0.6-4.8l0.2-1.6l0.5-3.2l0.6-4.8l0.6-4.8  l0.6-4.8l0.6-4.8l0.5-4.8" />
<path
   id="path844"
   class="st13"
   d="M389.7,575.6l0.2-0.3l2.4-4.4l2.6-4.8l1.5-2.8l1.2-2l2.7-4.8l2.6-4.5l0.2-0.3l2.8-4.8l2.9-4.8  l0.7-1.3l2.1-3.4l2.9-4.8l1.6-2.7l1.3-2l2.9-4.8l2.4-4l0.5-0.8l2.8-4.8l2.9-4.8l0.3-0.6" />
<path
   id="path848"
   class="st13"
   d="M397.3,575.6l3.4-4.8l2.2-3.1l1.3-1.7l3.6-4.8l1.6-2.2l2.1-2.6l3.9-4.8l0.6-0.7l3.3-4.1l3.2-3.8  l0.9-1l4.1-4.8l1.6-1.8" />
<path
   id="path852"
   class="st13"
   d="M404.9,575.6l4-4.8l0.6-0.7l3.5-4l3.1-3.5l1.2-1.3l4.3-4.8l1.1-1.2l3.3-3.6l3.2-3.4" />
<path
   id="path856"
   class="st13"
   d="M412.4,575.6l3.6-4l0.7-0.8l4.4-4.8l1.4-1.5l3.2-3.3l3.4-3.5" />
<path
   id="path860"
   class="st13"
   d="M419.9,575.6l2.7-2.9l1.9-1.9l4.7-4.8l0,0" />
<path
   id="path864"
   class="st13"
   d="M427.3,575.6l1.9-1.9" />
<path
   id="path866"
   class="st12"
   d="M437.6,456.4v65.4l0.1-3.3l0.1-4.8l0.1-4.8l0.1-4.8l0.1-4.8l0.1-4.8l0.1-4.8l0.1-4.8l0.1-4.8  l0.1-4.8l0.1-4.8l0.1-4.8l0.1-4.8l0.1-4.8L437.6,456.4z" />
<path
   id="path868"
   class="st38"
   d="M450.7,456.4h-11.8l-0.1,4.8l-0.1,4.8l-0.1,4.8l-0.1,4.8l-0.1,4.8l-0.1,4.8l-0.1,4.8l-0.1,4.8  l-0.1,4.8l-0.1,4.8l-0.1,4.8l-0.1,4.8l-0.1,4.8l-0.1,3.3v53.9h1.9l1-4.8l0.9-4.8l0.9-4.8l0.9-4.8l0.8-4.8l0.1-0.6l0.8-4.2l0.8-4.8  l0.8-4.8l0.7-4.8l0.7-4.8l0.6-4.8l0.6-4.8l0.5-4.8l0.5-4.8l0.4-4.8l0.2-3l0.2-1.8l0.4-4.8l0.4-4.8l0.4-4.8l0.3-4.8l0.3-4.8l0.3-4.8  l0.3-4.8l0.3-4.8l0.3-4.8L450.7,456.4z" />
<path
   id="path870"
   class="st14"
   d="M483,456.4h-29.2l-0.3,4.8l-0.3,4.8l-0.3,4.8l-0.3,4.8l-0.3,4.8L452,485l-0.4,4.8l-0.4,4.8  l-0.4,4.8l-0.2,1.8l-0.2,3l-0.4,4.8l-0.5,4.8l-0.5,4.8l-0.6,4.8l-0.6,4.8l-0.7,4.8l-0.7,4.8l-0.8,4.8l-0.8,4.8l-0.8,4.2l-0.1,0.6  l-0.8,4.8l-0.9,4.8l-0.9,4.8l-0.9,4.8l-1,4.8h5.4l1.5-4.8l1.5-4.8l1.5-4.8l1.2-3.6l0.4-1.2l1.6-4.8l1.6-4.8l1.6-4.8l1.3-4l0.3-0.8  l1.6-4.8l1.6-4.8l1.6-4.8l1.4-4.3l0.2-0.5l1.5-4.8l1.6-4.8l1.6-4.8l1.6-4.8l0.1-0.5l1.4-4.3l1.5-4.8l1.5-4.8l1.5-4.8l0.7-2.6  l0.7-2.2l1.4-4.8l1.4-4.8l1.4-4.8L483,456.4z" />
<path
   id="path872"
   class="st15"
   d="M481.7,461.1l-1.4,4.8l-1.4,4.8l-1.4,4.8l-0.7,2.2l-0.7,2.6l-1.5,4.8l-1.5,4.8l-1.5,4.8l-1.4,4.3  l-0.1,0.5l-1.6,4.8l-1.6,4.8l-1.6,4.8l-1.5,4.8l-0.2,0.5l-1.4,4.3l-1.6,4.8l-1.6,4.8l-1.6,4.8l-0.3,0.8l-1.3,4l-1.6,4.8l-1.6,4.8  l-1.6,4.8l-0.4,1.2l-1.2,3.6l-1.5,4.8l-1.5,4.8l-1.5,4.8h5.7l0.1-0.1l1.9-4.6l2-4.8l2.1-4.8l0.5-1.2l1.6-3.5l2.2-4.8l2.3-4.8  l0.5-1.1l1.7-3.7l2.3-4.8l2.5-4.8l0.1-0.2l2.2-4.6l2.4-4.8l1.9-3.5l0.6-1.3l2.4-4.8l2.6-4.8l0.9-1.5l1.6-3.2l2.6-4.8l2.3-4v-39H483  L481.7,461.1z" />
<path
   id="path874"
   class="st16"
   d="M489.9,495.3l-2.3,4l-2.6,4.8l-1.6,3.2l-0.9,1.5l-2.6,4.8l-2.4,4.8l-0.6,1.3l-1.9,3.5l-2.4,4.8  l-2.2,4.6l-0.1,0.2l-2.5,4.8l-2.3,4.8l-1.7,3.7l-0.5,1.1l-2.3,4.8l-2.2,4.8l-1.6,3.5l-0.5,1.2l-2.1,4.8l-2,4.8l-1.9,4.6l-0.1,0.1  h5.8l0.8-1.7l1.5-3l2.4-4.8l2.5-4.8l0.2-0.4l2.3-4.4l2.6-4.8l1.7-3.1l0.9-1.6l2.6-4.8l2.8-4.8l0.3-0.6l2.3-4.2l2.8-4.8l1.5-2.4  l1.3-2.4l2.8-4.8l2.4-3.9L489.9,495.3z" />
<path
   id="path876"
   class="st17"
   d="M489.9,514.4l-2.4,3.9l-2.8,4.8l-1.3,2.4l-1.5,2.4l-2.8,4.8l-2.3,4.2l-0.3,0.6l-2.8,4.8l-2.6,4.8  l-0.9,1.6l-1.7,3.1l-2.6,4.8l-2.3,4.4l-0.2,0.4l-2.5,4.8l-2.4,4.8l-1.5,3l-0.8,1.7h5.8l1.5-2.9l1-1.9l2.6-4.8l2.7-4.8l0.2-0.3  l2.5-4.4l2.8-4.8l1.3-2.2l1.5-2.6l2.8-4.8l2.2-3.7l0.7-1.1l2.8-4.8l3-4.8l0.1-0.1L489.9,514.4z" />
<path
   id="path878"
   class="st18"
   d="M489.9,527.8l-0.1,0.1l-3,4.8l-2.8,4.8l-0.7,1.1l-2.2,3.7l-2.8,4.8l-1.5,2.6l-1.3,2.2l-2.8,4.8  l-2.5,4.4l-0.2,0.3l-2.7,4.8l-2.6,4.8l-1,1.9l-1.5,2.9h5.9l2.2-3.8l0.6-0.9l2.8-4.8l2.8-4.8l0.4-0.7l2.4-4.1l2.9-4.8l1.2-2l1.7-2.8  l2.9-4.8l1.9-3.1V527.8z" />
<path
   id="path880"
   class="st19"
   d="M489.9,539.1l-1.9,3.1l-2.9,4.8l-1.7,2.8l-1.2,2l-2.9,4.8l-2.4,4.1l-0.4,0.7l-2.8,4.8l-2.8,4.8  l-0.6,0.9l-2.2,3.8h5.9l2.8-4.7l0.1-0.1l2.9-4.8l2.9-4.8l0.7-1.1l2.2-3.6l3-4.8l1.4-2.2V539.1z" />
<path
   id="path882"
   class="st20"
   d="M489.9,549.6l-1.4,2.2l-3,4.8l-2.2,3.6l-0.7,1.1l-2.9,4.8l-2.9,4.8l-0.1,0.1l-2.8,4.7h6l2.9-4.8  l0.4-0.7l2.5-4.1l3-4.8l1.1-1.7L489.9,549.6z" />
<path
   id="path884"
   class="st21"
   d="M489.9,559.6l-1.1,1.7l-3,4.8l-2.5,4.1l-0.4,0.7l-2.9,4.8h6l3-4.8l0.9-1.4L489.9,559.6z" />
<path
   id="path886"
   class="st22"
   d="M489.9,569.4l-0.9,1.4l-3,4.8h3.9V569.4z" />
<path
   id="path890"
   class="st13"
   d="M437.6,521.7l0.1-3.3l0.1-4.8l0.1-4.8l0.1-4.8l0.1-4.8l0.1-4.8l0.1-4.8l0.1-4.8l0.1-4.8l0.1-4.8  l0.1-4.8l0.1-4.8l0.1-4.8l0.1-4.8" />
<path
   id="path894"
   class="st13"
   d="M439.5,575.6l1-4.8l0.9-4.8l0.9-4.8l0.9-4.8l0.8-4.8l0.1-0.6l0.8-4.2l0.8-4.8l0.8-4.8l0.7-4.8  l0.7-4.8l0.6-4.8l0.6-4.8l0.5-4.8l0.5-4.8l0.4-4.8l0.2-3l0.2-1.8l0.4-4.8l0.4-4.8l0.4-4.8l0.3-4.8l0.3-4.8l0.3-4.8l0.3-4.8l0.3-4.8  l0.3-4.8" />
<path
   id="path898"
   class="st13"
   d="M444.9,575.6l1.5-4.8l1.5-4.8l1.5-4.8l1.2-3.6l0.4-1.2l1.6-4.8l1.6-4.8l1.6-4.8l1.3-4l0.3-0.8  l1.6-4.8l1.6-4.8l1.6-4.8l1.4-4.3l0.2-0.5l1.5-4.8l1.6-4.8l1.6-4.8l1.6-4.8l0.1-0.5l1.4-4.3l1.5-4.8l1.5-4.8l1.5-4.8l0.7-2.6  l0.7-2.2l1.4-4.8l1.4-4.8l1.4-4.8l1.3-4.8" />
<path
   id="path902"
   class="st13"
   d="M450.6,575.6l0.1-0.1l1.9-4.6l2-4.8l2.1-4.8l0.5-1.2l1.6-3.5l2.2-4.8l2.3-4.8l0.5-1.1l1.7-3.7  l2.3-4.8l2.5-4.8l0.1-0.2l2.2-4.6l2.4-4.8l1.9-3.5l0.6-1.3l2.4-4.8l2.6-4.8l0.9-1.5l1.6-3.2l2.6-4.8l2.3-4" />
<path
   id="path906"
   class="st13"
   d="M456.4,575.6l0.8-1.7l1.5-3l2.4-4.8l2.5-4.8l0.2-0.4l2.3-4.4l2.6-4.8l1.7-3.1l0.9-1.6l2.6-4.8  l2.8-4.8l0.3-0.6l2.3-4.2l2.8-4.8l1.5-2.4l1.3-2.4l2.8-4.8l2.4-3.9" />
<path
   id="path910"
   class="st13"
   d="M462.2,575.6l1.5-2.9l1-1.9l2.6-4.8l2.7-4.8l0.2-0.3l2.5-4.4l2.8-4.8l1.3-2.2l1.5-2.6l2.8-4.8  l2.2-3.7l0.7-1.1l2.8-4.8l3-4.8l0.1-0.1" />
<path
   id="path914"
   class="st13"
   d="M468.1,575.6l2.2-3.8l0.6-0.9l2.8-4.8l2.8-4.8l0.4-0.7l2.4-4.1l2.9-4.8l1.2-2l1.7-2.8l2.9-4.8  l1.9-3.1" />
<path
   id="path918"
   class="st13"
   d="M474,575.6l2.8-4.7l0.1-0.1l2.9-4.8l2.9-4.8l0.7-1.1l2.2-3.6l3-4.8l1.4-2.2" />
<path
   id="path922"
   class="st13"
   d="M480,575.6l2.9-4.8l0.4-0.7l2.5-4.1l3-4.8l1.1-1.7" />
<path
   id="path926"
   class="st13"
   d="M486,575.6l3-4.8l0.9-1.4" />
<path
   id="path4422"
   d="M72.9,456.4h52.3v119.3H72.9V456.4z" />

<path
   id="path14"
   d="M72.8,612.3h52.4v119.3H72.8V612.3z" />
<path
   id="path570"
   d="M75.8,612.3h49.3v119.3H75.8V612.3z" />
<path
   id="path782"
   d="M133.6,612.3h11.6v119.3h-11.6V612.3z" />
<path
   id="path966"
   class="st12"
   d="M84.9,612.3H76v4.8l0,4.8v9.5l0,4.8v4.8l0,4.8v4.8l0,4.8v4.8l0,4.8v4.8l0,4.8l0,4.8v4.8l0,4.8  v4.8l0,4.8v4.8l0,4.8l0,4.8l0,4.8l0,4.8l-0.1,4.8l-0.1,4.8h10l0.1-4.8l0-4.8l0-4.8v-4.8l0-4.8l0-9.5l0-4.8l0-4.8l0-9.5l0-4.8l0-9.5  l0-4.8l0-4.8l0-4.8l0-4.8l0-9.5l0-4.8l0-14.3l0-4.8L84.9,612.3z" />
<path
   id="path968"
   class="st38"
   d="M92,612.3h-6.1l0,4.8l0,14.3l0,4.8l0,9.5l0,4.8l0,4.8l0,4.8l0,4.8l0,9.5l0,4.8l0,9.5l0,4.8l0,4.8  l0,9.5l0,4.8v4.8l0,4.8l0,4.8l-0.1,4.8h10l0-4.8l0-4.8l0-4.8l0-4.8l0-4.8l0-9.5l0-4.8l0-4.8l0-9.5l0-4.8l0-9.5l0-4.8l0-9.5l0-4.8  l0-4.8l0-4.8l0-4.8l0-4.8l0-9.5l0-4.8H92z" />
<path
   id="path970"
   class="st14"
   d="M104.1,612.3h-8.5l0,4.8l0,9.5l0,4.8l0,4.8l0,4.8l0,4.8l0,4.8l0,9.5l0,4.8l0,9.5l0,4.8l0,9.5  l0,4.8l0,4.8l0,9.5l0,4.8l0,4.8l0,4.8l0,4.8l0,4.8h9.9l0-4.8l-0.1-4.8l-0.1-4.8l-0.1-4.8l-0.1-4.8l0-4.8l0-4.8l0-4.8l-0.1-9.5l0-4.8  l0-4.8l0-9.5l0-4.8l0-4.8l0-4.8l0-4.8l0-9.5l0-4.8l0-4.8l0-4.8l0-4.8l0-4.8H104.1z" />
<path
   id="path972"
   class="st15"
   d="M114.3,612.3h-9.1l0,4.8l0,4.8l0,4.8l0,4.8l0,4.8l0,9.5l0,4.8l0,4.8l0,4.8l0,4.8l0,9.5l0,4.8  l0,4.8l0.1,9.5l0,4.8l0,4.8l0,4.8l0.1,4.8l0.1,4.8l0.1,4.8l0.1,4.8l0,4.8h9.9l-0.2-4.8l-0.1-4.8l-0.1-4.8l-0.1-4.8l-0.1-4.8  l-0.1-4.8l-0.1-4.8l-0.1-4.8l-0.1-4.8l0-2l0-2.8l0-4.8l0-4.8l0-4.8l0-4.8l0-4.8l0-4.8l0-4.8l0-4.8l0-9.5l0-4.8l0-4.8l0-9.5  L114.3,612.3z" />
<path
   id="path974"
   class="st16"
   d="M122.9,612.3h-8.6l0,4.8l0,9.5l0,4.8l0,4.8l0,9.5l0,4.8l0,4.8l0,4.8l0,4.8l0,4.8l0,4.8l0,4.8  l0,4.8l0,2.8l0,2l0.1,4.8l0.1,4.8l0.1,4.8l0.1,4.8l0.1,4.8l0.1,4.8l0.1,4.8l0.1,4.8l0.2,4.8h9.5v-3.4l-0.1-1.4l-0.3-4.8l-0.3-4.8  l-0.2-4.8l0-0.2l-0.2-4.6l-0.2-4.8l-0.1-4.8l-0.1-4.8l-0.1-4.8l-0.1-4.8l-0.1-4.8l-0.1-4.8l0-3.6l0-1.1l-0.1-4.8l-0.1-4.8l0-4.8  l0-4.8l0-4.8l0-4.8l0-4.8l0-4.8l-0.1-9.5l0-4.8L122.9,612.3z" />
<path
   id="path976"
   class="st17"
   d="M125.2,612.3h-2.3l0,4.8l0,4.8l0.1,9.5l0,4.8l0,4.8l0,4.8l0,4.8l0,4.8l0,4.8l0.1,4.8l0.1,4.8  l0,1.1l0,3.6l0.1,4.8l0.1,4.8l0.1,4.8l0.1,4.8l0.1,4.8l0.1,4.8l0.2,4.8l0.2,4.6l0,0.2l0.2,4.8l0.3,4.8l0.3,4.8l0.1,1.4L125.2,612.3z  " />
<path
   id="path980"
   class="st13"
   d="M75.8,731.6l0.1-4.8l0.1-4.8l0-4.8l0-4.8l0-4.8l0-4.8v-4.8l0-4.8v-4.8l0-4.8v-4.8l0-4.8l0-4.8  v-4.8l0-4.8v-4.8l0-4.8v-4.8l0-4.8v-4.8l0-4.8v-9.5l0-4.8v-4.8" />
<path
   id="path984"
   class="st13"
   d="M85.9,731.6l0.1-4.8l0-4.8l0-4.8v-4.8l0-4.8l0-9.5l0-4.8l0-4.8l0-9.5l0-4.8l0-9.5l0-4.8l0-4.8  l0-4.8l0-4.8l0-9.5l0-4.8l0-14.3l0-4.8" />
<path
   id="path988"
   class="st13"
   d="M95.8,731.6l0-4.8l0-4.8l0-4.8l0-4.8l0-4.8l0-9.5l0-4.8l0-4.8l0-9.5l0-4.8l0-9.5l0-4.8l0-9.5  l0-4.8l0-4.8l0-4.8l0-4.8l0-4.8l0-9.5l0-4.8" />
<path
   id="path992"
   class="st13"
   d="M105.8,731.6l0-4.8l-0.1-4.8l-0.1-4.8l-0.1-4.8l-0.1-4.8l0-4.8l0-4.8l0-4.8l-0.1-9.5l0-4.8l0-4.8  l0-9.5l0-4.8l0-4.8l0-4.8l0-4.8l0-9.5l0-4.8l0-4.8l0-4.8l0-4.8l0-4.8" />
<path
   id="path996"
   class="st13"
   d="M115.7,731.6l-0.2-4.8l-0.1-4.8l-0.1-4.8l-0.1-4.8l-0.1-4.8l-0.1-4.8l-0.1-4.8l-0.1-4.8l-0.1-4.8  l0-2l0-2.8l0-4.8l0-4.8l0-4.8l0-4.8l0-4.8l0-4.8l0-4.8l0-4.8l0-9.5l0-4.8l0-4.8l0-9.5l0-4.8" />
<path
   id="path1000"
   class="st13"
   d="M125.2,728.2l-0.1-1.4l-0.3-4.8l-0.3-4.8l-0.2-4.8l0-0.2l-0.2-4.6l-0.2-4.8l-0.1-4.8l-0.1-4.8  l-0.1-4.8l-0.1-4.8l-0.1-4.8l-0.1-4.8l0-3.6l0-1.1l-0.1-4.8l-0.1-4.8l0-4.8l0-4.8l0-4.8l0-4.8l0-4.8l0-4.8l-0.1-9.5l0-4.8l0-4.8" />
<path
   id="path1002"
   class="st12"
   d="M136.8,612.3l0,4.8v4.8l0,4.8v9.5l0,4.8v4.8l0,4.8v9.5l0,4.8v9.5l0,4.8l0,4.8l0,4.8l0,4.8l0,4.8  l0,4.8l0,4.8l-0.1,4.8l-0.1,4.8l-0.2,4.8l-0.4,4.8l-0.6,4.8h10l0.4-3.1l0.2-1.7l0.3-4.8l0.2-4.8l0.1-4.8l0.1-4.8l0-4.8l0-4.8l0-4.8  l0-4.8v-9.5l0-4.8l0-4.8l0-4.8l0-4.8l0-4.8l0-4.8l0-4.8l0-9.5l0-4.8l0-14.3l0-4.8L136.8,612.3z" />
<path
   id="path1004"
   class="st38"
   d="M152.8,612.3h-6.1l0,4.8l0,14.3l0,4.8l0,9.5l0,4.8l0,4.8l0,4.8l0,4.8l0,4.8l0,4.8l0,4.8v9.5  l0,4.8l0,4.8l0,4.8l0,4.8l-0.1,4.8l-0.1,4.8l-0.2,4.8l-0.3,4.8l-0.2,1.7l-0.4,3.1h10l0.6-4.8l0.3-4.8l0.2-4.8l0.1-4.8l0-4.8l0-4.8  l0-4.8v-4.8l0-4.8l0-9.5l0-4.8l0-4.8l0-4.8l0-4.8l0-9.5l0-4.8l0-4.8l0-4.8l0-4.8l0-4.8l0-9.5l0-4.8L152.8,612.3z" />
<path
   id="path1006"
   class="st14"
   d="M164.9,612.3h-8.5l0,4.8l0,9.5l0,4.8l0,4.8l0,4.8l0,4.8l0,4.8l0,9.5l0,4.8l0,4.8l0,4.8l0,4.8  l0,9.5l0,4.8v4.8l0,4.8l0,4.8l0,4.8l-0.1,4.8l-0.2,4.8l-0.3,4.8l-0.6,4.8h9.9l0.5-4.8l0.3-4.8l0.1-4.8l0.1-4.8l0-4.8l0-4.8l0-4.8  l0-4.8l0-4.8l0-4.8l0-4.8l0-4.8l0-4.8l0-4.8l0-4.8l0-4.8l0-4.8l0-4.8l0-4.8l0-4.8l0-4.8l0-14.3l0-4.8H164.9z" />
<path
   id="path1008"
   class="st15"
   d="M175.1,612.3h-9.1l0,4.8l0,14.3l0,4.8l0,4.8l0,4.8l0,4.8l0,4.8l0,4.8l0,4.8l0,4.8l0,4.8l0,4.8  l0,4.8l0,4.8l0,4.8l0,4.8l0,4.8l0,4.8l0,4.8l-0.1,4.8l-0.1,4.8l-0.3,4.8l-0.5,4.8h9.9l0.4-4.8l0-0.8l0.1-4l0.1-4.8l0-4.8l0-4.8  l0-4.8l0-4.8l0-4.8l0-1.9l0-2.8l0-4.8l0-4.8l0-4.8l0-4.8l0-4.8l0-4.8l0-4.8l0-4.8l0-4.8l0-9.5l0-4.8l0-4.8l0-4.8l0-4.8L175.1,612.3z  " />
<path
   id="path1010"
   class="st16"
   d="M183.6,612.3h-8.6l0,4.8l0,4.8l0,4.8l0,4.8l0,4.8l0,9.5l0,4.8l0,4.8l0,4.8l0,4.8l0,4.8l0,4.8  l0,4.8l0,4.8l0,4.8l0,2.8l0,1.9l0,4.8l0,4.8l0,4.8l0,4.8l0,4.8l-0.1,4.8l-0.1,4l0,0.8l-0.4,4.8h9.7l0.2-4.8l0-4.8l-0.1-4.8l-0.1-4.8  l-0.1-4.8l-0.1-4.8l-0.1-4.8l-0.1-4.8l-0.1-4.8l-0.1-4.8l-0.1-4.8l-0.1-4.8l0-1.1l0-3.7l-0.1-4.8L184,660l0-4.8l0-4.8l0-4.8l0-4.8  l0-4.8l0-4.8l0-4.8l-0.1-9.5L183.6,612.3z" />
<path
   id="path1012"
   class="st17"
   d="M186,612.3h-2.3l0,4.8l0.1,9.5l0,4.8l0,4.8l0,4.8l0,4.8l0,4.8l0,4.8l0,4.8l0.1,4.8l0.1,4.8  l0,3.7l0,1.1l0.1,4.8l0.1,4.8l0.1,4.8l0.1,4.8l0.1,4.8l0.1,4.8l0.1,4.8l0.1,4.8l0.1,4.8l0.1,4.8l0,4.8l-0.2,4.8h1.1L186,612.3z" />
<path
   id="path1016"
   class="st13"
   d="M135.3,731.6l0.6-4.8l0.4-4.8l0.2-4.8l0.1-4.8l0.1-4.8l0-4.8l0-4.8l0-4.8l0-4.8l0-4.8l0-4.8  l0-4.8v-9.5l0-4.8v-9.5l0-4.8v-4.8l0-4.8v-9.5l0-4.8v-4.8l0-4.8" />
<path
   id="path1020"
   class="st13"
   d="M145.3,731.6l0.4-3.1l0.2-1.7l0.3-4.8l0.2-4.8l0.1-4.8l0.1-4.8l0-4.8l0-4.8l0-4.8l0-4.8v-9.5  l0-4.8l0-4.8l0-4.8l0-4.8l0-4.8l0-4.8l0-4.8l0-9.5l0-4.8l0-14.3l0-4.8" />
<path
   id="path1024"
   class="st13"
   d="M155.3,731.6l0.6-4.8l0.3-4.8l0.2-4.8l0.1-4.8l0-4.8l0-4.8l0-4.8v-4.8l0-4.8l0-9.5l0-4.8l0-4.8  l0-4.8l0-4.8l0-9.5l0-4.8l0-4.8l0-4.8l0-4.8l0-4.8l0-9.5l0-4.8" />
<path
   id="path1028"
   class="st13"
   d="M165.2,731.6l0.5-4.8l0.3-4.8l0.1-4.8l0.1-4.8l0-4.8l0-4.8l0-4.8l0-4.8l0-4.8l0-4.8l0-4.8l0-4.8  l0-4.8l0-4.8l0-4.8l0-4.8l0-4.8l0-4.8l0-4.8l0-4.8l0-4.8l0-14.3l0-4.8" />
<path
   id="path1032"
   class="st13"
   d="M175.1,731.6l0.4-4.8l0-0.8l0.1-4l0.1-4.8l0-4.8l0-4.8l0-4.8l0-4.8l0-4.8l0-1.9l0-2.8l0-4.8  l0-4.8l0-4.8l0-4.8l0-4.8l0-4.8l0-4.8l0-4.8l0-4.8l0-9.5l0-4.8l0-4.8l0-4.8l0-4.8l0-4.8" />
<path
   id="path1036"
   class="st13"
   d="M184.9,731.6l0.2-4.8l0-4.8l-0.1-4.8l-0.1-4.8l-0.1-4.8l-0.1-4.8l-0.1-4.8l-0.1-4.8l-0.1-4.8  l-0.1-4.8l-0.1-4.8l-0.1-4.8l0-1.1l0-3.7l-0.1-4.8L184,660l0-4.8l0-4.8l0-4.8l0-4.8l0-4.8l0-4.8l0-4.8l-0.1-9.5l0-4.8" />
<path
   id="path1038"
   class="st12"
   d="M194.4,612.3v117l0.9-2.5l1.2-4.8l0.9-4.8l0.7-4.8l0.6-4.8l0.5-4.8l0.4-4.8l0.4-4.8l0.3-4.8  l0.3-4.8l0.3-4.8l0.3-4.8l0.2-4.8l0.2-4.8l0.2-4.8l0.2-4.8l0.2-4.8l0.2-4.8l0.2-4.8l0.2-4.8l0.2-4.8l0.1-4.8l0.1-4.8l0.1-4.8  l0.1-4.8L194.4,612.3z" />
<path
   id="path1040"
   class="st38"
   d="M203.5,612.3l-0.1,4.8l-0.1,4.8l-0.1,4.8l-0.1,4.8l-0.2,4.8l-0.2,4.8l-0.2,4.8l-0.2,4.8  l-0.2,4.8l-0.2,4.8l-0.2,4.8l-0.2,4.8l-0.2,4.8l-0.3,4.8l-0.3,4.8l-0.3,4.8l-0.3,4.8l-0.4,4.8l-0.4,4.8l-0.5,4.8l-0.6,4.8l-0.7,4.8  l-0.9,4.8l-1.2,4.8l-0.9,2.5v2.3h9.1l1.6-4.8l1.2-4.8l0.2-0.8l0.8-4l0.7-4.8l0.6-4.8l0.5-4.8l0.4-4.8l0.4-4.8l0.3-4.8l0.3-4.8  l0.3-4.8l0.3-4.8l0.2-4.8l0.2-4.8l0.2-4.8l0.2-4.8l0.2-4.8l0.2-4.8l0.2-4.8l0.2-4.8l0.1-4.8l0.1-4.8l0.1-4.8l0.1-4.8l0.1-4.8H203.5z  " />
<path
   id="path1042"
   class="st14"
   d="M222.8,612.3h-9.5l-0.1,4.8l-0.1,4.8l-0.1,4.8l-0.1,4.8l-0.1,4.8l-0.2,4.8l-0.2,4.8l-0.2,4.8  l-0.2,4.8l-0.2,4.8l-0.2,4.8l-0.2,4.8l-0.2,4.8l-0.3,4.8l-0.3,4.8l-0.3,4.8l-0.3,4.8l-0.4,4.8L209,703l-0.5,4.8l-0.6,4.8l-0.7,4.8  l-0.8,4l-0.2,0.8l-1.2,4.8l-1.6,4.8h9.9l0.2-0.7l1.3-4.1l1.2-4.8l0.9-4.8l0.7-4.8l0.6-4.8l0.4-3.8l0.1-1l0.4-4.8l0.4-4.8l0.3-4.8  l0.3-4.8l0.3-4.8l0.2-4.8l0.2-4.8l0.2-4.8l0.2-4.8l0.2-4.8l0.2-4.8l0.2-4.8l0.2-4.8l0.2-4.8l0.1-4.8l0.1-4.8l0.1-4.6l0-0.2l0.1-4.8  L222.8,612.3z" />
<path
   id="path1044"
   class="st15"
   d="M231.9,612.3h-9.2l-0.1,4.8l-0.1,4.8l0,0.2l-0.1,4.6l-0.1,4.8l-0.1,4.8l-0.2,4.8l-0.2,4.8  l-0.2,4.8l-0.2,4.8l-0.2,4.8l-0.2,4.8l-0.2,4.8l-0.2,4.8l-0.2,4.8l-0.3,4.8l-0.3,4.8l-0.3,4.8l-0.4,4.8l-0.4,4.8l-0.1,1l-0.4,3.8  l-0.6,4.8l-0.7,4.8l-0.9,4.8l-1.2,4.8l-1.3,4.1l-0.2,0.7h9.7l1.5-4.8l1.1-4.8l0.1-0.5l0.7-4.3l0.7-4.8l0.5-4.8l0.5-4.8l0.3-3.6  l0.1-1.1l0.3-4.8l0.3-4.8l0.3-4.8l0.3-4.8l0.2-4.8l0.2-4.8l0.2-4.8l0.2-4.8l0.2-4.8l0-1.1l0.1-3.7l0.2-4.8l0.1-4.8l0.1-4.8l0.1-4.8  l0.1-4.8l0.1-4.8l0.1-4.8L231.9,612.3z" />
<path
   id="path1046"
   class="st16"
   d="M240.5,612.3h-8.6l-0.1,4.8l-0.1,4.8l-0.1,4.8l-0.1,4.8l-0.1,4.8l-0.1,4.8l-0.1,4.8l-0.2,4.8  l-0.1,3.7l0,1.1l-0.2,4.8l-0.2,4.8l-0.2,4.8l-0.2,4.8l-0.2,4.8l-0.3,4.8l-0.3,4.8l-0.3,4.8l-0.3,4.8l-0.1,1.1l-0.3,3.6l-0.5,4.8  l-0.5,4.8l-0.7,4.8l-0.7,4.3l-0.1,0.5l-1.1,4.8l-1.5,4.8h9.5l0.3-1l1-3.8l0.8-3.9l0.2-0.9l0.7-4.8l0.6-4.8l0.2-1.5l0.3-3.3l0.4-4.8  l0.4-4.8l0.3-4.8l0.1-1.9l0.2-2.9l0.3-4.8l0.2-4.8l0.2-4.8l0.2-4.8l0.2-4.8l0.2-4.4l0-0.3l0.2-4.8l0.2-4.8l0.1-4.8l0.1-4.8l0.1-4.8  l0.1-4.8l0.1-4.8l0.1-4.8l0.1-4.8L240.5,612.3z" />
<path
   id="path1048"
   class="st17"
   d="M240.5,612.3l-0.1,4.8l-0.1,4.8l-0.1,4.8l-0.1,4.8l-0.1,4.8l-0.1,4.8l-0.1,4.8l-0.1,4.8  l-0.2,4.8l-0.2,4.8l0,0.3l-0.2,4.4l-0.2,4.8l-0.2,4.8l-0.2,4.8l-0.2,4.8l-0.3,4.8l-0.2,2.9l-0.1,1.9l-0.3,4.8L237,703l-0.4,4.8  l-0.3,3.3l-0.2,1.5l-0.6,4.8l-0.7,4.8l-0.2,0.9l-0.8,3.9l-1,3.8l-0.3,1h9.2l0-0.1l1-4.6l0.1-0.6l0.7-4.1l0.4-3l0.2-1.7l0.5-4.8  l0.3-3.6l0.1-1.2l0.3-4.8l0.3-4.8l0.2-3.9l0-0.8l0.2-4.8l0.2-4.8l0.2-4.8l0.2-4.8l0-1.2v-60.8H240.5z" />
<path
   id="path1050"
   class="st18"
   d="M246.8,673.1l0,1.2l-0.2,4.8l-0.2,4.8l-0.2,4.8l-0.2,4.8l0,0.8l-0.2,3.9l-0.3,4.8l-0.3,4.8  l-0.1,1.2l-0.3,3.6l-0.5,4.8l-0.2,1.7l-0.4,3l-0.7,4.1l-0.1,0.6l-1,4.6l0,0.1h5.1L246.8,673.1z" />
<path
   id="path1054"
   class="st13"
   d="M194.4,729.3l0.9-2.5l1.2-4.8l0.9-4.8l0.7-4.8l0.6-4.8l0.5-4.8l0.4-4.8l0.4-4.8l0.3-4.8l0.3-4.8  l0.3-4.8l0.3-4.8l0.2-4.8l0.2-4.8l0.2-4.8l0.2-4.8l0.2-4.8l0.2-4.8l0.2-4.8l0.2-4.8l0.2-4.8l0.1-4.8l0.1-4.8l0.1-4.8l0.1-4.8" />
<path
   id="path1058"
   class="st13"
   d="M203.5,731.6l1.6-4.8l1.2-4.8l0.2-0.8l0.8-4l0.7-4.8l0.6-4.8l0.5-4.8l0.4-4.8l0.4-4.8l0.3-4.8  l0.3-4.8l0.3-4.8l0.3-4.8l0.2-4.8l0.2-4.8l0.2-4.8l0.2-4.8l0.2-4.8l0.2-4.8l0.2-4.8l0.2-4.8l0.1-4.8l0.1-4.8l0.1-4.8l0.1-4.8  l0.1-4.8" />
<path
   id="path1062"
   class="st13"
   d="M213.4,731.6l0.2-0.7l1.3-4.1l1.2-4.8l0.9-4.8l0.7-4.8l0.6-4.8l0.4-3.8l0.1-1l0.4-4.8l0.4-4.8  l0.3-4.8l0.3-4.8l0.3-4.8l0.2-4.8l0.2-4.8l0.2-4.8l0.2-4.8l0.2-4.8l0.2-4.8l0.2-4.8l0.2-4.8l0.2-4.8l0.1-4.8l0.1-4.8l0.1-4.6l0-0.2  l0.1-4.8l0.1-4.8" />
<path
   id="path1066"
   class="st13"
   d="M223.1,731.6l1.5-4.8l1.1-4.8l0.1-0.5l0.7-4.3l0.7-4.8l0.5-4.8l0.5-4.8l0.3-3.6l0.1-1.1l0.3-4.8  l0.3-4.8l0.3-4.8l0.3-4.8l0.2-4.8l0.2-4.8l0.2-4.8l0.2-4.8l0.2-4.8l0-1.1l0.1-3.7l0.2-4.8l0.1-4.8l0.1-4.8l0.1-4.8l0.1-4.8l0.1-4.8  l0.1-4.8l0.1-4.8" />
<path
   id="path1070"
   class="st13"
   d="M232.5,731.6l0.3-1l1-3.8l0.8-3.9l0.2-0.9l0.7-4.8l0.6-4.8l0.2-1.5l0.3-3.3l0.4-4.8l0.4-4.8  l0.3-4.8l0.1-1.9l0.2-2.9l0.3-4.8l0.2-4.8l0.2-4.8l0.2-4.8l0.2-4.8l0.2-4.4l0-0.3l0.2-4.8l0.2-4.8l0.1-4.8l0.1-4.8l0.1-4.8l0.1-4.8  l0.1-4.8l0.1-4.8l0.1-4.8l0.1-4.8" />
<path
   id="path1074"
   class="st13"
   d="M241.7,731.6l0-0.1l1-4.6l0.1-0.6l0.7-4.1l0.4-3l0.2-1.7l0.5-4.8l0.3-3.6l0.1-1.2l0.3-4.8  l0.3-4.8l0.2-3.9l0-0.8l0.2-4.8l0.2-4.8l0.2-4.8l0.2-4.8l0-1.2" />
<path
   id="path1076"
   class="st12"
   d="M255.2,612.3V679l0.2-4.6l0.2-4.8l0.2-4.8l0.2-4.8l0.1-4.8l0.1-4.8l0.1-4.8l0.1-4.8l0.1-4.8  l0.1-4.8l0.1-4.8l0.1-4.8l0.1-4.8l0.1-4.8L255.2,612.3z" />
<path
   id="path1078"
   class="st38"
   d="M256.9,612.3l-0.1,4.8l-0.1,4.8l-0.1,4.8l-0.1,4.8l-0.1,4.8l-0.1,4.8l-0.1,4.8l-0.1,4.8  l-0.1,4.8l-0.1,4.8l-0.2,4.8l-0.2,4.8l-0.2,4.8l-0.2,4.6v52.7h0.6l2.3-4.8l1.7-4.8l1.2-4.8l0.9-4.8l0.7-4.8l0.6-4.8l0.5-4.8l0.4-4.8  l0.3-4.8l0.3-4.8l0.2-4.8l0.2-4.8l0.2-4.8l0.2-4.8l0.2-4.8l0.1-4.8l0.1-4.8l0.1-4.8l0.1-4.8l0.1-4.8l0.1-4.8l0.1-4.8l0.1-4.8  l0.1-4.8l0.1-4.8L256.9,612.3z" />
<path
   id="path1080"
   class="st14"
   d="M274.4,612.3h-7.7l-0.1,4.8l-0.1,4.8l-0.1,4.8l-0.1,4.8l-0.1,4.8l-0.1,4.8l-0.1,4.8l-0.1,4.8  l-0.1,4.8l-0.1,4.8l-0.2,4.8l-0.2,4.8l-0.2,4.8l-0.2,4.8l-0.2,4.8l-0.3,4.8l-0.3,4.8l-0.4,4.8l-0.5,4.8l-0.6,4.8l-0.7,4.8l-0.9,4.8  l-1.2,4.8l-1.7,4.8l-2.3,4.8h9.9l1.6-3.4l0.7-1.4l1.6-4.8l1.2-4.8l0.9-4.8l0.7-4.8l0.6-4.8l0.5-4.8l0.4-4.8l0.3-4.8l0.2-3.6l0.1-1.2  l0.2-4.8l0.2-4.8l0.2-4.8l0.2-4.8l0.2-4.8l0.1-4.8l0.1-4.8l0.1-4.8l0.1-4.8l0.1-4.8l0.1-4.8l0.1-4.8l0.1-4.8l0.1-4.8l0.1-4.8H274.4z  " />
<path
   id="path1082"
   class="st15"
   d="M285.7,612.3h-9.4l-0.1,4.8l-0.1,4.8l-0.1,4.8l-0.1,4.8l-0.1,4.8l-0.1,4.8l-0.1,4.8l-0.1,4.8  l-0.1,4.8l-0.1,4.8l-0.2,4.8l-0.2,4.8l-0.2,4.8l-0.2,4.8l-0.2,4.8l-0.1,1.2l-0.2,3.6l-0.3,4.8l-0.4,4.8L273,703l-0.6,4.8l-0.7,4.8  l-0.9,4.8l-1.2,4.8l-1.6,4.8l-0.7,1.4l-1.6,3.4h9.7l2.2-4.8l1.6-4.8l0.2-1l0.9-3.8l0.9-4.8l0.7-4.8l0.6-4.8l0.5-4.8l0.4-4.8l0-0.5  l0.3-4.3l0.3-4.8l0.2-4.8l0.2-4.8l0.2-4.8l0.2-4.8l0.1-4.8l0.1-4.8l0.1-4.8l0.1-4.8l0.1-4.8l0.1-4.8l0.1-4.8l0.1-4.8l0.1-4.8  l0.1-4.8L285.7,612.3z" />
<path
   id="path1084"
   class="st16"
   d="M294.6,612.3h-8.9l-0.1,4.8l-0.1,4.8l-0.1,4.8l-0.1,4.8l-0.1,4.8l-0.1,4.8l-0.1,4.8l-0.1,4.8  l-0.1,4.8l-0.1,4.8l-0.1,4.8l-0.2,4.8l-0.2,4.8l-0.2,4.8l-0.2,4.8l-0.3,4.8l-0.3,4.3l0,0.5l-0.4,4.8l-0.5,4.8l-0.6,4.8l-0.7,4.8  l-0.9,4.8l-0.9,3.8l-0.2,1l-1.6,4.8l-2.2,4.8h9.5l1.6-3.7l0.5-1.1l1.5-4.8l0.8-3.4l0.3-1.4l0.8-4.8l0.7-4.8l0.5-4.8l0-0.1l0.4-4.7  l0.4-4.8l0.3-4.8l0.3-4.8l0.2-4.8l0.2-4.8l0.2-4.8l0.1-4.2l0-0.6l0.1-4.8l0.1-4.8l0.1-4.8l0.1-4.8l0.1-4.8l0.1-4.8l0.1-4.8l0.1-4.8  l0.1-4.8l0.1-4.8L294.6,612.3z" />
<path
   id="path1086"
   class="st17"
   d="M302.8,612.3h-8.2l-0.1,4.8l-0.1,4.8l-0.1,4.8l-0.1,4.8l-0.1,4.8l-0.1,4.8l-0.1,4.8l-0.1,4.8  l-0.1,4.8l-0.1,4.8l-0.1,4.8l0,0.6l-0.1,4.2l-0.2,4.8l-0.2,4.8l-0.2,4.8l-0.3,4.8l-0.3,4.8l-0.4,4.8l-0.4,4.7l0,0.1l-0.5,4.8  l-0.7,4.8l-0.8,4.8l-0.3,1.4l-0.8,3.4l-1.5,4.8l-0.5,1.1l-1.6,3.7h9.3l1.2-3.3l0.5-1.5l1.1-4.2l0.1-0.5l1-4.8l0.4-2.7l0.3-2.1  l0.6-4.8l0.5-4.8l0-0.1l0.4-4.7l0.3-4.8l0.3-4.8l0.2-4.8l0.1-2.1l0.1-2.7l0.2-4.8l0.2-4.8l0.1-4.8l0.1-4.8l0.1-4.8l0.1-4.8l0.1-4.8  l0.1-4.8l0.1-4.8l0-1.6l0-3.2l0.1-4.8l0.1-4.8l0.1-4.8L302.8,612.3z" />
<path
   id="path1088"
   class="st18"
   d="M302.8,612.3l-0.1,4.8l-0.1,4.8l-0.1,4.8l-0.1,4.8l0,3.2l0,1.6l-0.1,4.8l-0.1,4.8l-0.1,4.8  l-0.1,4.8L302,660l-0.1,4.8l-0.1,4.8l-0.2,4.8l-0.2,4.8l-0.1,2.7l-0.1,2.1l-0.2,4.8l-0.3,4.8l-0.3,4.8l-0.4,4.7l0,0.1l-0.5,4.8  l-0.6,4.8l-0.3,2.1l-0.4,2.7l-1,4.8l-0.1,0.5l-1.1,4.2l-0.5,1.5l-1.2,3.3h9l0.4-1.5l0.9-3.3l0.1-0.7l0.8-4.1l0.2-1l0.6-3.8l0.3-2.7  l0.2-2l0.5-4.8l0.2-2.2v-93.2L302.8,612.3z" />
<path
   id="path1090"
   class="st19"
   d="M307.5,705.6l-0.2,2.2l-0.5,4.8l-0.2,2l-0.3,2.7l-0.6,3.8l-0.2,1l-0.8,4.1l-0.1,0.7l-0.9,3.3  l-0.4,1.5h4.3L307.5,705.6z" />
<path
   id="path1094"
   class="st13"
   d="M255.2,679l0.2-4.6l0.2-4.8l0.2-4.8l0.2-4.8l0.1-4.8l0.1-4.8l0.1-4.8l0.1-4.8l0.1-4.8l0.1-4.8  l0.1-4.8l0.1-4.8l0.1-4.8l0.1-4.8" />
<path
   id="path1098"
   class="st13"
   d="M255.8,731.6l2.3-4.8l1.7-4.8l1.2-4.8l0.9-4.8l0.7-4.8l0.6-4.8l0.5-4.8l0.4-4.8l0.3-4.8l0.3-4.8  l0.2-4.8l0.2-4.8l0.2-4.8l0.2-4.8l0.2-4.8l0.1-4.8l0.1-4.8l0.1-4.8l0.1-4.8l0.1-4.8l0.1-4.8l0.1-4.8l0.1-4.8l0.1-4.8l0.1-4.8" />
<path
   id="path1102"
   class="st13"
   d="M265.7,731.6l1.6-3.4l0.7-1.4l1.6-4.8l1.2-4.8l0.9-4.8l0.7-4.8l0.6-4.8l0.5-4.8l0.4-4.8l0.3-4.8  l0.2-3.6l0.1-1.2l0.2-4.8l0.2-4.8l0.2-4.8l0.2-4.8l0.2-4.8l0.1-4.8l0.1-4.8l0.1-4.8l0.1-4.8l0.1-4.8l0.1-4.8l0.1-4.8l0.1-4.8  l0.1-4.8l0.1-4.8" />
<path
   id="path1106"
   class="st13"
   d="M275.4,731.6l2.2-4.8l1.6-4.8l0.2-1l0.9-3.8l0.9-4.8l0.7-4.8l0.6-4.8l0.5-4.8l0.4-4.8l0-0.5  l0.3-4.3l0.3-4.8l0.2-4.8l0.2-4.8l0.2-4.8l0.2-4.8l0.1-4.8l0.1-4.8l0.1-4.8l0.1-4.8l0.1-4.8l0.1-4.8l0.1-4.8l0.1-4.8l0.1-4.8  l0.1-4.8l0.1-4.8" />
<path
   id="path1110"
   class="st13"
   d="M284.9,731.6l1.6-3.7l0.5-1.1l1.5-4.8l0.8-3.4l0.3-1.4l0.8-4.8l0.7-4.8l0.5-4.8l0-0.1l0.4-4.7  l0.4-4.8l0.3-4.8l0.3-4.8l0.2-4.8l0.2-4.8l0.2-4.8l0.1-4.2l0-0.6l0.1-4.8l0.1-4.8l0.1-4.8l0.1-4.8l0.1-4.8l0.1-4.8l0.1-4.8l0.1-4.8  l0.1-4.8l0.1-4.8l0.1-4.8" />
<path
   id="path1114"
   class="st13"
   d="M294.2,731.6l1.2-3.3l0.5-1.5l1.1-4.2l0.1-0.5l1-4.8l0.4-2.7l0.3-2.1l0.6-4.8l0.5-4.8l0-0.1  l0.4-4.7l0.3-4.8l0.3-4.8l0.2-4.8l0.1-2.1l0.1-2.7l0.2-4.8l0.2-4.8l0.1-4.8l0.1-4.8l0.1-4.8l0.1-4.8l0.1-4.8l0.1-4.8l0.1-4.8l0-1.6  l0-3.2l0.1-4.8l0.1-4.8l0.1-4.8l0.1-4.8" />
<path
   id="path1118"
   class="st13"
   d="M303.2,731.6l0.4-1.5l0.9-3.3l0.1-0.7l0.8-4.1l0.2-1l0.6-3.8l0.3-2.7l0.2-2l0.5-4.8l0.2-2.2" />

<path
   id="path4232"
   class="st41"
   d="M260.9,631c0,2.9-4.3,2.9-4.3,0C256.6,628.1,260.9,628.1,260.9,631" />
<path
   id="path4240"
   class="st38"
   d="M316,612.3v103.3l0.9-3.1l1.1-4.8l0.8-4.8l0.7-4.8l0.6-4.8l0.5-4.8l0.4-4.8l0.3-4.8l0.3-4.8  l0.3-4.8l0.2-4.8l0.2-4.8l0.2-4.8l0.2-4.8l0.2-4.8l0.1-4.8l0.1-4.8l0.1-4.8l0.1-4.8l0.1-4.8l0.1-4.8l0.1-4.8L316,612.3z" />
<path
   id="path4242"
   class="st14"
   d="M323.5,612.3l-0.1,4.8l-0.1,4.8l-0.1,4.8l-0.1,4.8l-0.1,4.8l-0.1,4.8l-0.1,4.8l-0.2,4.8  l-0.2,4.8l-0.2,4.8l-0.2,4.8l-0.2,4.8l-0.3,4.8l-0.3,4.8l-0.3,4.8l-0.4,4.8l-0.5,4.8l-0.6,4.8l-0.7,4.8l-0.8,4.8l-1.1,4.8l-0.9,3.1  v16h1.9l3.2-4.8l2.4-4.8l1.8-4.8l1.4-4.8l1.1-4.8l0.4-2.1l0.5-2.6l0.7-4.8l0.6-4.8l0.5-4.8l0.4-4.8l0.3-4.8l0.3-4.8l0.3-4.8l0.2-4.8  l0.2-4.8l0.2-4.8l0.2-4.8l0.2-4.8l0.1-4.8l0.1-4.8l0.1-4.8l0.1-4.8l0.1-4.8l0.1-4.8l0.1-4.8H323.5z" />
<path
   id="path4244"
   class="st15"
   d="M340.2,612.3h-7l-0.1,4.8l-0.1,4.8l-0.1,4.8l-0.1,4.8l-0.1,4.8l-0.1,4.8l-0.1,4.8l-0.2,4.8  l-0.2,4.8L332,660l-0.2,4.8l-0.2,4.8l-0.3,4.8l-0.3,4.8l-0.3,4.8l-0.4,4.8l-0.5,4.8l-0.6,4.8l-0.7,4.8l-0.5,2.6l-0.4,2.1l-1.1,4.8  l-1.4,4.8l-1.8,4.8l-2.4,4.8l-3.2,4.8h9.8l0.4-0.7l2.6-4.1l2.3-4.8l1.8-4.8l0.4-1.2l1-3.5l1.1-4.8l0.8-4.8l0.7-4.8l0.6-4.8l0.5-4.8  l0.4-4.8l0-0.5l0.3-4.3l0.3-4.8l0.3-4.8l0.2-4.8l0.2-4.8l0.2-4.8l0.2-4.8l0.2-4.8l0.1-4.8l0.1-4.8l0.1-4.8l0.1-4.8l0.1-4.8l0.1-4.8  l0.1-4.8L340.2,612.3z" />
<path
   id="path4246"
   class="st16"
   d="M351.9,612.3h-9.1l-0.1,4.8l-0.1,4.8l-0.1,4.8l-0.1,4.8l-0.1,4.8l-0.1,4.8l-0.1,4.8l-0.2,4.8  l-0.2,4.8l-0.2,4.8l-0.2,4.8l-0.2,4.8l-0.3,4.8l-0.3,4.8l-0.3,4.3l0,0.5l-0.4,4.8l-0.5,4.8l-0.6,4.8l-0.7,4.8l-0.8,4.8l-1.1,4.8  l-1,3.5l-0.4,1.2l-1.8,4.8l-2.3,4.8l-2.6,4.1l-0.4,0.7h9.7l2.9-4.7l0,0l2.2-4.8l1.7-4.8l0,0l1.3-4.8l1-4.8l0.8-4.8l0-0.1l0.6-4.6  l0.5-4.8l0.5-4.8l0.4-4.8l0.3-4.8l0.3-4.8l0-0.5l0.2-4.3l0.2-4.8l0.2-4.8l0.2-4.8l0.2-4.8l0.1-4.8l0.1-4.8l0.1-4.8l0.1-4.8l0.1-4.8  l0.1-4.8l0.1-4.8L351.9,612.3z" />
<path
   id="path4248"
   class="st17"
   d="M360.4,612.3h-8.6l-0.1,4.8l-0.1,4.8l-0.1,4.8l-0.1,4.8l-0.1,4.8l-0.1,4.8l-0.1,4.8l-0.1,4.8  l-0.2,4.8l-0.2,4.8l-0.2,4.8l-0.2,4.8l-0.2,4.3l0,0.5l-0.3,4.8l-0.3,4.8l-0.4,4.8l-0.5,4.8l-0.5,4.8l-0.6,4.6l0,0.1l-0.8,4.8l-1,4.8  l-1.3,4.8l0,0l-1.7,4.8l-2.2,4.8l0,0l-2.9,4.7h9.5l0.4-0.8l2.2-4l0.5-1.3l1.5-3.5l0.9-2.7l0.7-2.1l1.2-4.8l0.2-0.8l0.8-4l0.8-4.8  l0.3-1.9l0.4-2.9l0.5-4.8l0.4-4.8l0.3-3.7l0.1-1l0.3-4.8l0.3-4.8l0.2-4.8l0.2-4.8l0.2-4.8l0.2-4.6l0-0.2l0.2-4.8l0.1-4.8l0.1-4.8  l0.1-4.8l0.1-4.8l0.1-4.8l0.1-4.8l0.1-4.8L360.4,612.3z" />
<path
   id="path4250"
   class="st18"
   d="M367.4,612.3h-7l-0.1,4.8l-0.1,4.8l-0.1,4.8l-0.1,4.8l-0.1,4.8l-0.1,4.8l-0.1,4.8l-0.1,4.8  l-0.2,4.8l0,0.2l-0.2,4.6l-0.2,4.8l-0.2,4.8l-0.2,4.8l-0.3,4.8l-0.3,4.8l-0.1,1l-0.3,3.7l-0.4,4.8l-0.5,4.8l-0.4,2.9L356,703  l-0.8,4.8l-0.8,4l-0.2,0.8l-1.2,4.8l-0.7,2.1l-0.9,2.7l-1.5,3.5l-0.5,1.3l-2.2,4l-0.4,0.8h9.4l0,0l1.7-3.6l0.5-1.2l1-2.8l0.7-2  l0.7-2.5l0.6-2.3l0.7-3l0.4-1.8l0.8-4.6l0-0.2l0.7-4.8l0.4-3.2l0.2-1.6l0.5-4.8l0.4-4.4l0-0.4l0.4-4.8l0.3-4.8l0.3-4.8l0-0.9  l0.2-3.9l0.2-4.8l0.2-4.8l0.2-4.8l0.1-4.8l0.1-2.1l0.1-2.6l0.1-4.8l0.1-4.8l0.1-4.8l0.1-4.8l0.1-4.8l0.1-4.8l0.1-4.8L367.4,612.3z" />
<path
   id="path4252"
   class="st19"
   d="M368.2,612.3l-0.1,4.8l-0.1,4.8l-0.1,4.8l-0.1,4.8l-0.1,4.8l-0.1,4.8l-0.1,4.8l-0.1,2.6  l-0.1,2.1l-0.1,4.8l-0.2,4.8l-0.2,4.8l-0.2,4.8l-0.2,3.9l0,0.9l-0.3,4.8l-0.3,4.8l-0.4,4.8l0,0.4l-0.4,4.4l-0.5,4.8l-0.2,1.6  l-0.4,3.2l-0.7,4.8l0,0.2l-0.8,4.6l-0.4,1.8l-0.7,3l-0.6,2.3l-0.7,2.5l-0.7,2l-1,2.8l-0.5,1.2l-1.7,3.6l0,0h9.3l0.9-2.6l0.7-2.2  l0.2-0.8l0.9-3.4V612.3L368.2,612.3L368.2,612.3z" />
<path
   id="path4254"
   class="st20"
   d="M368.3,722.7l-0.9,3.4l-0.2,0.8l-0.7,2.2l-0.9,2.6h2.8L368.3,722.7z" />
<path
   id="path4258"
   class="st13"
   d="M316,715.6l0.9-3.1l1.1-4.8l0.8-4.8l0.7-4.8l0.6-4.8l0.5-4.8l0.4-4.8l0.3-4.8l0.3-4.8l0.3-4.8  l0.2-4.8l0.2-4.8l0.2-4.8l0.2-4.8l0.2-4.8l0.1-4.8l0.1-4.8l0.1-4.8l0.1-4.8l0.1-4.8l0.1-4.8l0.1-4.8" />
<path
   id="path4262"
   class="st13"
   d="M317.8,731.6l3.2-4.8l2.4-4.8l1.8-4.8l1.4-4.8l1.1-4.8l0.4-2.1l0.5-2.6l0.7-4.8l0.6-4.8l0.5-4.8  l0.4-4.8l0.3-4.8l0.3-4.8l0.3-4.8l0.2-4.8l0.2-4.8l0.2-4.8l0.2-4.8l0.2-4.8l0.1-4.8l0.1-4.8l0.1-4.8l0.1-4.8l0.1-4.8l0.1-4.8  l0.1-4.8" />
<path
   id="path4266"
   class="st13"
   d="M327.7,731.6l0.4-0.7l2.6-4.1l2.3-4.8l1.8-4.8l0.4-1.2l1-3.5l1.1-4.8l0.8-4.8l0.7-4.8l0.6-4.8  l0.5-4.8l0.4-4.8l0-0.5l0.3-4.3l0.3-4.8l0.3-4.8l0.2-4.8l0.2-4.8l0.2-4.8l0.2-4.8l0.2-4.8l0.1-4.8l0.1-4.8l0.1-4.8l0.1-4.8l0.1-4.8  l0.1-4.8l0.1-4.8" />
<path
   id="path4270"
   class="st13"
   d="M337.3,731.6l2.9-4.7l0,0l2.2-4.8l1.7-4.8l0,0l1.3-4.8l1-4.8l0.8-4.8l0-0.1l0.6-4.6l0.5-4.8  l0.5-4.8l0.4-4.8l0.3-4.8l0.3-4.8l0-0.5l0.2-4.3l0.2-4.8l0.2-4.8l0.2-4.8l0.2-4.8l0.1-4.8l0.1-4.8l0.1-4.8l0.1-4.8l0.1-4.8l0.1-4.8  l0.1-4.8l0.1-4.8" />
<path
   id="path4274"
   class="st13"
   d="M346.9,731.6l0.4-0.8l2.2-4l0.5-1.3l1.5-3.5l0.9-2.7l0.7-2.1l1.2-4.8l0.2-0.8l0.8-4l0.8-4.8  l0.3-1.9l0.4-2.9l0.5-4.8l0.4-4.8l0.3-3.7l0.1-1l0.3-4.8l0.3-4.8l0.2-4.8l0.2-4.8l0.2-4.8l0.2-4.6l0-0.2l0.2-4.8l0.1-4.8l0.1-4.8  l0.1-4.8l0.1-4.8l0.1-4.8l0.1-4.8l0.1-4.8l0.1-4.8" />
<path
   id="path4278"
   class="st13"
   d="M356.2,731.6L356.2,731.6l1.7-3.6l0.5-1.2l1-2.8l0.7-2l0.7-2.5l0.6-2.3l0.7-3l0.4-1.8l0.8-4.6  l0-0.2l0.7-4.8l0.4-3.2l0.2-1.6l0.5-4.8l0.4-4.4l0-0.4l0.4-4.8l0.3-4.8l0.3-4.8l0-0.9l0.2-3.9l0.2-4.8l0.2-4.8l0.2-4.8l0.1-4.8  l0.1-2.1l0.1-2.6l0.1-4.8l0.1-4.8l0.1-4.8l0.1-4.8l0.1-4.8l0.1-4.8l0.1-4.8" />
<path
   id="path4282"
   class="st13"
   d="M365.6,731.6l0.9-2.6l0.7-2.2l0.2-0.8l0.9-3.4" />
<path
   id="path4284"
   class="st38"
   d="M376.8,612.3v68l0.1-1.2l0.4-4.8l0.4-4.8l0.3-4.8l0.3-4.8l0.2-4.8l0.2-4.8l0.2-4.8l0.2-4.8  l0.2-4.8l0.2-4.8l0.1-4.8l0.1-4.8l0.1-4.8l0.1-4.8L376.8,612.3z" />
<path
   id="path4286"
   class="st14"
   d="M379.9,612.3l-0.1,4.8l-0.1,4.8l-0.1,4.8l-0.1,4.8l-0.2,4.8l-0.2,4.8l-0.2,4.8l-0.2,4.8  l-0.2,4.8l-0.2,4.8l-0.3,4.8l-0.3,4.8l-0.4,4.8l-0.4,4.8l-0.1,1.2v39l1.1-2l2.1-4.8l1.7-4.8l1.3-4.8l1.1-4.8l0.9-4.8l0.7-4.8  l0.6-4.8l0.5-4.8l0.4-4.8l0.4-4.8l0.3-4.8l0.3-4.8l0.2-4.8l0.2-4.8l0.2-4.8l0.2-4.8l0-0.6l0.1-4.2l0.2-4.8l0.1-4.8l0.1-4.8l0.1-4.8  l0.1-4.8L379.9,612.3z" />
<path
   id="path4288"
   class="st15"
   d="M389.7,612.3l-0.1,4.8l-0.1,4.8l-0.1,4.8l-0.1,4.8l-0.2,4.8l-0.1,4.2l0,0.6l-0.2,4.8l-0.2,4.8  l-0.2,4.8L388,660l-0.3,4.8l-0.3,4.8l-0.4,4.8l-0.4,4.8l-0.5,4.8l-0.6,4.8l-0.7,4.8l-0.9,4.8l-1.1,4.8l-1.3,4.8l-1.7,4.8l-2.1,4.8  l-1.1,2v12.3h1.2l3.8-4.8l3.1-4.8l2.6-4.8l1.4-3.3l0.6-1.5l1.6-4.8l1.3-4.8l1.1-4.8l0.9-4.8l0.7-4.8l0.6-4.8l0.2-2.3l0.3-2.4  l0.4-4.8l0.4-4.8l0.3-4.8l0.3-4.8l0.2-4.8l0.2-4.8l0.2-4.8l0.2-4.8l0.2-4.8l0.2-4.8l0.1-4.8l0.1-4.8l0.1-4.8l0.1-4.8L389.7,612.3z" />
<path
   id="path4290"
   class="st16"
   d="M408.6,612.3h-9.3l-0.1,4.8l-0.1,4.8l-0.1,4.8l-0.1,4.8l-0.2,4.8l-0.2,4.8l-0.2,4.8l-0.2,4.8  l-0.2,4.8l-0.2,4.8l-0.3,4.8l-0.3,4.8l-0.4,4.8l-0.4,4.8l-0.3,2.4l-0.2,2.3l-0.6,4.8l-0.7,4.8l-0.9,4.8l-1.1,4.8l-1.3,4.8l-1.6,4.8  l-0.6,1.5l-1.4,3.3l-2.6,4.8l-3.1,4.8l-3.8,4.8h9.8l1.1-1.4l2.6-3.4l3-4.8l1.6-3l0.9-1.7l2-4.8l1.6-4.8l0.6-2.2l0.7-2.5l1.1-4.8  l0.9-4.8l0.7-4.8l0.6-4.4l0-0.4l0.5-4.8l0.4-4.8l0.4-4.8l0.3-4.8l0.3-4.8l0.3-4.8l0.2-4.8l0.2-4.8l0.2-4.8l0.2-4.8l0.2-4.7l0-0.1  l0.1-4.8l0.1-4.8l0.1-4.8L408.6,612.3z" />
<path
   id="path4292"
   class="st17"
   d="M417,612.3h-8.4l-0.1,4.8l-0.1,4.8l-0.1,4.8l-0.1,4.8l0,0.1l-0.2,4.7l-0.2,4.8l-0.2,4.8  l-0.2,4.8l-0.2,4.8l-0.3,4.8l-0.3,4.8l-0.3,4.8l-0.4,4.8l-0.4,4.8l-0.5,4.8l0,0.4l-0.6,4.4l-0.7,4.8l-0.9,4.8l-1.1,4.8l-0.7,2.5  l-0.6,2.2l-1.6,4.8l-2,4.8L396,719l-1.6,3l-3,4.8l-2.6,3.4l-1.1,1.4h9.8l3.4-4.8l0.1-0.1l2.7-4.6l1.2-2.6l1-2.1l1.8-4.8l0.4-1.2  l1.1-3.6l1.2-4.8l0.3-1.6l0.7-3.2l0.9-4.8l0.7-4.8l0.1-0.5l0.5-4.2l0.5-4.8l0.5-4.8l0.4-4.8l0.2-2.1l0.2-2.7l0.3-4.8l0.3-4.8  l0.2-4.8l0.2-4.8l0.2-4.8l0.2-4.8l0.2-4.8l0.1-3.7l0-1.1l0.1-4.8l0.1-4.8l0.1-4.8L417,612.3z" />
<path
   id="path4294"
   class="st18"
   d="M425.2,612.3h-7.8l-0.1,4.8l-0.1,4.8l-0.1,4.8l0,1.1l-0.1,3.7l-0.2,4.8l-0.2,4.8l-0.2,4.8  l-0.2,4.8l-0.2,4.8l-0.3,4.8l-0.3,4.8l-0.2,2.7l-0.2,2.1l-0.4,4.8l-0.5,4.8l-0.5,4.8l-0.5,4.2l-0.1,0.5l-0.7,4.8l-0.9,4.8l-0.7,3.2  l-0.3,1.6l-1.2,4.8l-1.1,3.6l-0.4,1.2l-1.8,4.8l-1,2.1l-1.2,2.6l-2.7,4.6l-0.1,0.1l-3.4,4.8h9.7l0.8-1.3l2.1-3.5l0.6-1.1l1.8-3.7  l0.5-1.2l1.5-3.6l0.6-1.7l1-3.1l0.8-2.8l0.5-2l1.1-4.8l0,0l0.9-4.8l0.6-3.3l0.2-1.4l0.7-4.8l0.5-3.7l0.1-1l0.5-4.8l0.5-4.8l0.2-2.5  l0.2-2.3l0.3-4.8l0.3-4.8l0.3-4.8l0.1-1.8l0.2-3l0.2-4.8l0.2-4.8l0.2-4.8l0.2-4.8l0.1-4.8l0.1-2.4l0.1-2.4l0.1-4.8l0.1-4.8H425.2z" />
<path
   id="path4296"
   class="st19"
   d="M425.6,612.3l-0.1,4.8l-0.1,4.8l-0.1,2.4l-0.1,2.4l-0.1,4.8l-0.2,4.8l-0.2,4.8l-0.2,4.8  l-0.2,4.8l-0.2,3l-0.1,1.8l-0.3,4.8l-0.3,4.8l-0.3,4.8l-0.2,2.3l-0.2,2.5l-0.5,4.8l-0.5,4.8l-0.1,1l-0.5,3.7l-0.7,4.8l-0.2,1.4  l-0.6,3.3l-0.9,4.8l0,0l-1.1,4.8l-0.5,2l-0.8,2.8l-1,3.1l-0.6,1.7l-1.5,3.6l-0.5,1.2l-1.8,3.7l-0.6,1.1l-2.1,3.5l-0.8,1.3h9.7  l0.1-0.1l1.7-3.2l0.8-1.5l0.8-1.8l1.2-3l0.2-0.5l1.3-3.8l0.2-0.5l1-3.7l0.3-1.1l0.8-3.5l0.3-1.3l0.8-3.8l0.2-1l0.8-4.7l0-0.1  l0.7-4.8l0.2-1.8l0.4-2.9l0.5-4.7v-71.6L425.6,612.3z" />
<path
   id="path4298"
   class="st20"
   d="M429.1,683.9l-0.5,4.7l-0.4,2.9l-0.2,1.8l-0.7,4.8l0,0.1l-0.8,4.7l-0.2,1l-0.8,3.8l-0.3,1.3  l-0.8,3.5l-0.3,1.1l-1,3.7l-0.2,0.5l-1.3,3.8l-0.2,0.5l-1.2,3l-0.8,1.8l-0.8,1.5l-1.7,3.2l-0.1,0.1h10.1l0.2-0.5l0.9-2.4l0.7-1.8  l0.2-0.7L429.1,683.9z" />
<path
   id="path4300"
   class="st21"
   d="M429.1,726.1l-0.2,0.7l-0.7,1.8l-0.9,2.4l-0.2,0.5h2.1V726.1z" />
<path
   id="path4304"
   class="st42"
   d="M376.8,680.3l0.1-1.2l0.4-4.8l0.4-4.8l0.3-4.8l0.3-4.8l0.2-4.8l0.2-4.8l0.2-4.8l0.2-4.8l0.2-4.8  l0.2-4.8l0.1-4.8l0.1-4.8l0.1-4.8l0.1-4.8" />
<path
   id="path4308"
   class="st13"
   d="M376.8,719.3l1.1-2l2.1-4.8l1.7-4.8l1.3-4.8l1.1-4.8l0.9-4.8l0.7-4.8l0.6-4.8l0.5-4.8l0.4-4.8  l0.4-4.8l0.3-4.8l0.3-4.8l0.2-4.8l0.2-4.8l0.2-4.8l0.2-4.8l0-0.6l0.1-4.2l0.2-4.8l0.1-4.8l0.1-4.8l0.1-4.8l0.1-4.8" />
<path
   id="path4312"
   class="st13"
   d="M378,731.6l3.8-4.8l3.1-4.8l2.6-4.8l1.4-3.3l0.6-1.5l1.6-4.8l1.3-4.8l1.1-4.8l0.9-4.8l0.7-4.8  l0.6-4.8l0.2-2.3l0.3-2.4l0.4-4.8l0.4-4.8l0.3-4.8l0.3-4.8l0.2-4.8l0.2-4.8l0.2-4.8l0.2-4.8l0.2-4.8l0.2-4.8l0.1-4.8l0.1-4.8  l0.1-4.8l0.1-4.8" />
<path
   id="path4316"
   class="st13"
   d="M387.8,731.6l1.1-1.4l2.6-3.4l3-4.8l1.6-3l0.9-1.7l2-4.8l1.6-4.8l0.6-2.2l0.7-2.5l1.1-4.8  l0.9-4.8l0.7-4.8l0.6-4.4l0-0.4l0.5-4.8l0.4-4.8l0.4-4.8l0.3-4.8l0.3-4.8l0.3-4.8l0.2-4.8l0.2-4.8l0.2-4.8l0.2-4.8l0.2-4.7l0-0.1  l0.1-4.8l0.1-4.8l0.1-4.8l0.1-4.8" />
<path
   id="path4320"
   class="st13"
   d="M397.6,731.6l3.4-4.8l0.1-0.1l2.7-4.6l1.2-2.6l1-2.1l1.8-4.8l0.4-1.2l1.1-3.6l1.2-4.8l0.3-1.6  l0.7-3.2l0.9-4.8l0.7-4.8l0.1-0.5l0.5-4.2l0.5-4.8l0.5-4.8l0.4-4.8l0.2-2.1l0.2-2.7l0.3-4.8l0.3-4.8l0.2-4.8l0.2-4.8l0.2-4.8  l0.2-4.8l0.2-4.8l0.1-3.7l0-1.1l0.1-4.8l0.1-4.8l0.1-4.8" />
<path
   id="path4324"
   class="st13"
   d="M407.3,731.6l0.8-1.3l2.1-3.5l0.6-1.1l1.8-3.7l0.5-1.2l1.5-3.6l0.6-1.7l1-3.1l0.8-2.8l0.5-2  l1.1-4.8l0,0l0.9-4.8l0.6-3.3l0.2-1.4l0.7-4.8l0.5-3.7l0.1-1l0.5-4.8l0.5-4.8l0.2-2.5l0.2-2.3l0.3-4.8l0.3-4.8l0.3-4.8l0.1-1.8  l0.2-3l0.2-4.8l0.2-4.8l0.2-4.8l0.2-4.8l0.1-4.8l0.1-2.4l0.1-2.4l0.1-4.8l0.1-4.8" />
<path
   id="path4328"
   class="st13"
   d="M417,731.6L417,731.6l1.7-3.2l0.8-1.5l0.8-1.8l1.2-3l0.2-0.5l1.3-3.8l0.2-0.5l1-3.7l0.3-1.1  l0.8-3.5l0.3-1.3l0.8-3.8l0.2-1l0.8-4.7l0-0.1l0.7-4.8l0.2-1.8l0.4-2.9l0.5-4.7" />
<path
   id="path4332"
   class="st13"
   d="M427.1,731.6l0.2-0.5l0.9-2.4l0.7-1.8l0.2-0.7" />
<path
   id="path4334"
   class="st14"
   d="M437.6,612.3v81.9l0.2-0.8l1.2-4.8l1-4.8l0.9-4.8l0.7-4.8l0.6-4.8l0.5-4.8l0.5-4.8l0.4-4.8  l0.3-4.8l0.3-4.8l0.3-4.8l0.2-4.8l0.2-4.8l0.2-4.8l0.2-4.8l0.2-4.8l0.1-4.8L437.6,612.3z" />
<path
   id="path4336"
   class="st15"
   d="M455.4,612.3h-9.7l-0.1,4.8l-0.2,4.8l-0.2,4.8l-0.2,4.8l-0.2,4.8l-0.2,4.8l-0.3,4.8l-0.3,4.8  l-0.3,4.8l-0.4,4.8l-0.5,4.8l-0.5,4.8l-0.6,4.8l-0.7,4.8l-0.9,4.8l-1,4.8l-1.2,4.8l-0.2,0.8v21.9l2-3.5l2.4-4.8l2-4.8l1.8-4.8  l1.5-4.8l1.3-4.8l1.1-4.8l0.1-0.4l0.8-4.4l0.7-4.8l0.6-4.8l0.5-4.8l0.5-4.8l0.4-4.8l0.4-4.8l0.3-4.8l0.3-4.8l0.2-4.8l0.2-4.8  l0.2-4.8l0.2-4.8l0.2-4.8L455.4,612.3z" />
<path
   id="path4338"
   class="st16"
   d="M464.8,612.3h-9.4l-0.2,4.8l-0.2,4.8l-0.2,4.8l-0.2,4.8l-0.2,4.8l-0.2,4.8l-0.3,4.8l-0.3,4.8  l-0.4,4.8l-0.4,4.8l-0.5,4.8l-0.5,4.8l-0.6,4.8l-0.7,4.8l-0.8,4.4l-0.1,0.4l-1.1,4.8l-1.3,4.8l-1.5,4.8L444,703l-2,4.8l-2.4,4.8  l-2,3.5v13.8l2.4-3l3.4-4.8l3-4.8l2.7-4.8l0.6-1.2l1.7-3.5l2-4.8l1.7-4.8l1.5-4.8l0.3-1.2l0.9-3.5l1-4.8l0.9-4.8l0.8-4.8l0.7-4.8  l0.6-4.8l0.2-1.5l0.3-3.3l0.4-4.8l0.4-4.8l0.3-4.8l0.3-4.8l0.3-4.8l0.2-4.8l0.2-4.8l0.2-4.8l0.2-4.8L464.8,612.3z" />
<path
   id="path4340"
   class="st17"
   d="M473.8,612.3h-8.9l-0.2,4.8l-0.2,4.8l-0.2,4.8l-0.2,4.8l-0.2,4.8l-0.3,4.8l-0.3,4.8l-0.3,4.8  l-0.4,4.8l-0.4,4.8l-0.3,3.3l-0.2,1.5l-0.6,4.8l-0.7,4.8l-0.8,4.8l-0.9,4.8l-1,4.8l-0.9,3.5l-0.3,1.2l-1.5,4.8l-1.7,4.8l-2,4.8  l-1.7,3.5l-0.6,1.2l-2.7,4.8l-3,4.8l-3.4,4.8l-2.4,3v1.7h8.6l3.5-4.6l0.1-0.1l3.2-4.8l2.8-4.8l1-1.8l1.5-3l2.1-4.8l1.4-3.7l0.4-1.1  l1.6-4.8l1.4-4.8l0.5-2.2l0.6-2.6l1-4.8l0.9-4.8l0.6-3.9l0.1-0.9l0.7-4.8l0.6-4.8l0.5-4.8l0.5-4.8l0.3-3.3l0.1-1.4l0.4-4.8l0.3-4.8  l0.3-4.8l0.3-4.8l0.2-4.8l0.2-4.8l0.2-4.8L473.8,612.3z" />
<path
   id="path4342"
   class="st18"
   d="M482,612.3h-8.2l-0.2,4.8l-0.2,4.8l-0.2,4.8l-0.2,4.8l-0.3,4.8l-0.3,4.8l-0.3,4.8l-0.4,4.8  l-0.1,1.4l-0.3,3.3l-0.5,4.8l-0.5,4.8l-0.6,4.8l-0.7,4.8l-0.1,0.9l-0.6,3.9l-0.9,4.8l-1,4.8l-0.6,2.6l-0.5,2.2l-1.4,4.8l-1.6,4.8  l-0.4,1.1l-1.4,3.7l-2.1,4.8l-1.5,3l-1,1.8l-2.8,4.8l-3.2,4.8l-0.1,0.1l-3.5,4.6h10l0.6-0.9l2.7-3.9l2.3-3.7l0.6-1l2.5-4.8l0.7-1.6  l1.4-3.2l1.7-4.4l0.2-0.4l1.6-4.8l0.9-2.9l0.5-1.8l1.2-4.8l0.5-2.3l0.6-2.5l1-4.8l0.5-3l0.3-1.8l0.8-4.8l0.7-4.8l0.1-0.8l0.5-4  l0.5-4.8l0.5-4.8l0.2-1.8l0.3-3l0.4-4.8l0.3-4.8l0.3-4.8l0.2-3.3l0.1-1.4l0.3-4.8l0.2-4.8l0.2-4.8L482,612.3z" />
<path
   id="path4344"
   class="st19"
   d="M489.4,612.3H482l-0.2,4.8l-0.2,4.8l-0.2,4.8l-0.3,4.8l-0.1,1.4l-0.2,3.3l-0.3,4.8l-0.3,4.8  l-0.4,4.8l-0.3,3l-0.2,1.8l-0.5,4.8l-0.5,4.8l-0.5,4l-0.1,0.8l-0.7,4.8l-0.8,4.8l-0.3,1.8l-0.5,3l-1,4.8l-0.6,2.5l-0.5,2.3l-1.2,4.8  l-0.5,1.8l-0.9,2.9l-1.6,4.8l-0.2,0.4l-1.7,4.4l-1.4,3.2l-0.7,1.6l-2.5,4.8l-0.6,1l-2.3,3.7l-2.7,3.9l-0.6,0.9h10.1l2.7-4.3l0.3-0.5  l2.4-4.5l0.2-0.3l2.2-4.8l0,0l1.9-4.8l0.2-0.5l1.5-4.3l0.4-1.2l1-3.5l0.6-2.4l0.6-2.4l0.9-3.9l0.2-0.9l1-4.8l0.2-1.3l0.6-3.5  l0.7-4.1l0.1-0.6l0.7-4.8l0.4-3.2l0.2-1.6l0.6-4.8l0.4-3.4l0.1-1.3l0.5-4.8l0.4-4.8l0-0.5l0.3-4.3l0.4-4.8l0.3-4.6l0-0.2l0.3-4.8  l0.3-4.8l0.3-4.8l0.1-2.5l0.1-2.3L489.4,612.3z" />
<path
   id="path4346"
   class="st20"
   d="M489.4,612.3l-0.2,4.8l-0.1,2.3l-0.1,2.5l-0.3,4.8l-0.3,4.8l-0.3,4.8l0,0.2l-0.3,4.6l-0.4,4.8  l-0.3,4.3l0,0.5l-0.4,4.8l-0.5,4.8l-0.1,1.3l-0.4,3.4l-0.6,4.8l-0.2,1.6l-0.4,3.2l-0.7,4.8l-0.1,0.6l-0.7,4.1l-0.6,3.5l-0.2,1.3  l-1,4.8l-0.2,0.9l-0.9,3.9l-0.6,2.4l-0.6,2.4l-1,3.5l-0.4,1.2L476,712l-0.2,0.5l-1.9,4.8l0,0l-2.2,4.8l-0.2,0.3l-2.4,4.5l-0.3,0.5  l-2.7,4.3h10.4l1.2-2.2l1.3-2.5l0.4-0.8l1.5-3.5l0.2-0.4l1.2-3.2l0.6-1.5l0.7-2.3l0.8-2.5l0.4-1.5l0.9-3.3l0.2-0.9l0.9-3.9l0.1-0.6  l0.9-4.2l0.1-0.6l0.8-4.2l0.2-1l0.6-3.8l0.3-1.8v-74.6L489.4,612.3z" />
<path
   id="path4348"
   class="st21"
   d="M489.9,686.9l-0.3,1.8l-0.6,3.8l-0.2,1l-0.8,4.2l-0.1,0.6l-0.9,4.2L487,703l-0.9,3.9l-0.2,0.9  l-0.9,3.3l-0.4,1.5l-0.8,2.5l-0.7,2.3l-0.6,1.5l-1.2,3.2l-0.2,0.4l-1.5,3.5l-0.4,0.8l-1.3,2.5l-1.2,2.2H488l0.1-0.3l0.9-2.4l0.8-2.1  l0.1-0.4L489.9,686.9z" />
<path
   id="path4350"
   class="st22"
   d="M489.9,726.4l-0.1,0.4l-0.8,2.1l-0.9,2.4l-0.1,0.3h2V726.4z" />
<path
   id="path4354"
   class="st13"
   d="M437.6,694.2l0.2-0.8l1.2-4.8l1-4.8l0.9-4.8l0.7-4.8l0.6-4.8l0.5-4.8l0.5-4.8l0.4-4.8l0.3-4.8  l0.3-4.8l0.3-4.8l0.2-4.8l0.2-4.8l0.2-4.8l0.2-4.8l0.2-4.8l0.1-4.8" />
<path
   id="path4358"
   class="st13"
   d="M437.6,716.1l2-3.5l2.4-4.8l2-4.8l1.8-4.8l1.5-4.8l1.3-4.8l1.1-4.8l0.1-0.4l0.8-4.4l0.7-4.8  l0.6-4.8l0.5-4.8l0.5-4.8l0.4-4.8l0.4-4.8l0.3-4.8l0.3-4.8l0.2-4.8l0.2-4.8l0.2-4.8l0.2-4.8l0.2-4.8l0.2-4.8" />
<path
   id="path4362"
   class="st13"
   d="M437.6,729.9l2.4-3l3.4-4.8l3-4.8l2.7-4.8l0.6-1.2l1.7-3.5l2-4.8l1.7-4.8l1.5-4.8l0.3-1.2  l0.9-3.5l1-4.8l0.9-4.8l0.8-4.8l0.7-4.8l0.6-4.8l0.2-1.5l0.3-3.3l0.4-4.8l0.4-4.8l0.3-4.8l0.3-4.8l0.3-4.8l0.2-4.8l0.2-4.8l0.2-4.8  l0.2-4.8l0.2-4.8" />
<path
   id="path4366"
   class="st13"
   d="M446.2,731.6l3.5-4.6l0.1-0.1l3.2-4.8l2.8-4.8l1-1.8l1.5-3l2.1-4.8l1.4-3.7l0.4-1.1l1.6-4.8  l1.4-4.8l0.5-2.2l0.6-2.6l1-4.8l0.9-4.8l0.6-3.9l0.1-0.9l0.7-4.8l0.6-4.8l0.5-4.8l0.5-4.8l0.3-3.3l0.1-1.4l0.4-4.8l0.3-4.8l0.3-4.8  l0.3-4.8l0.2-4.8l0.2-4.8l0.2-4.8l0.2-4.8" />
<path
   id="path4370"
   class="st13"
   d="M456.2,731.6l0.6-0.9l2.7-3.9l2.3-3.7l0.6-1l2.5-4.8l0.7-1.6l1.4-3.2l1.7-4.4l0.2-0.4l1.6-4.8  l0.9-2.9l0.5-1.8l1.2-4.8l0.5-2.3l0.6-2.5l1-4.8l0.5-3l0.3-1.8l0.8-4.8l0.7-4.8l0.1-0.8l0.5-4l0.5-4.8l0.5-4.8l0.2-1.8l0.3-3  l0.4-4.8l0.3-4.8l0.3-4.8l0.2-3.3l0.1-1.4l0.3-4.8l0.2-4.8l0.2-4.8l0.2-4.8" />
<path
   id="path4374"
   class="st13"
   d="M466.2,731.6l2.7-4.3l0.3-0.5l2.4-4.5l0.2-0.3l2.2-4.8l0,0l1.9-4.8l0.2-0.5l1.5-4.3l0.4-1.2  l1-3.5l0.6-2.4l0.6-2.4l0.9-3.9l0.2-0.9l1-4.8l0.2-1.3l0.6-3.5l0.7-4.1l0.1-0.6l0.7-4.8l0.4-3.2l0.2-1.6l0.6-4.8l0.4-3.4l0.1-1.3  l0.5-4.8l0.4-4.8l0-0.5l0.3-4.3l0.4-4.8l0.3-4.6l0-0.2l0.3-4.8l0.3-4.8l0.3-4.8l0.1-2.5l0.1-2.3l0.2-4.8" />
<path
   id="path4378"
   class="st13"
   d="M476.6,731.6l1.2-2.2l1.3-2.5l0.4-0.8l1.5-3.5l0.2-0.4l1.2-3.2l0.6-1.5l0.7-2.3l0.8-2.5l0.4-1.5  l0.9-3.3l0.2-0.9l0.9-3.9l0.1-0.6l0.9-4.2l0.1-0.6l0.8-4.2l0.2-1l0.6-3.8l0.3-1.8" />
<path
   id="path4382"
   class="st13"
   d="M488,731.6l0.1-0.3l0.9-2.4l0.8-2.1l0.1-0.4" />
<path
   id="path500_1_"
   class="st38"
   d="M496.5,574.1h9.2v9.2h-9.2V574.1z" />
<text
   transform="matrix(1 0 0 1 503.4651 535.0602)"
   class="st0 st1"
   id="text586">F1 survivors </text>
<text
   transform="matrix(1 0 0 1 497.759 546.718)"
   class="st0 st1"
   id="text588">per 1000 P cells</text>
<text
   transform="matrix(1 0 0 1 509.8269 570.9553)"
   class="st0 st43"
   id="text590">(1, 18]</text>
<text
   transform="matrix(1 0 0 1 509.8269 591.2986)"
   class="st0 st43"
   id="text592">(32, 56]</text>
<text
   transform="matrix(1 0 0 1 509.8269 611.445)"
   class="st0 st43"
   id="text594">(100, 179]</text>
<text
   transform="matrix(1 0 0 1 509.8269 641.6619)"
   class="st0 st43"
   id="text596">(562, 1000]</text>
<text
   transform="matrix(1 0 0 1 509.8269 621.5155)"
   class="st0 st43"
   id="text598">(179, 316]</text>
<text
   transform="matrix(1 0 0 1 509.8269 601.3721)"
   class="st0 st43"
   id="text600">(56, 100]</text>
<text
   transform="matrix(1 0 0 1 509.8269 631.5884)"
   class="st0 st43"
   id="text602">(316, 562]</text>
<text
   transform="matrix(1 0 0 1 509.8269 651.7347)"
   class="st0 st43"
   id="text604">(1000, 1778]</text>
<text
   transform="matrix(1 0 0 1 509.8269 661.8053)"
   class="st0 st43"
   id="text606">(1778, 3162]</text>
<text
   transform="matrix(1 0 0 1 509.8269 671.8788)"
   class="st0 st43"
   id="text608">(3162, 5623]</text>
<path
   id="path4482_1_"
   class="st2"
   d="M174.8,166.4l15.8,0.5l-8.3,13.5L174.8,166.4z" />
<text
   transform="matrix(1 0 0 1 510.3059 581.6102)"
   class="st0 st43"
   id="text611">(18, 32]</text>
<text
   transform="matrix(1 0 0 1 210.8645 442.0342)"
   class="st0 st1"
   id="text613">Duration of the growth arrest (days)</text>
<g
   id="g618">
	<line
   class="st44"
   x1="489.1"
   y1="445.4"
   x2="72.4"
   y2="445.4"
   id="line615" />
	<path
   id="path4486_1_"
   class="st45"
   d="M488.9,443.4l2.8,1.9l-1.4,1l-1.4,1l0-2L488.9,443.4z" />
</g>
<path
   id="path9489"
   class="st39"
   d="m 253.37241,512.65273 h 57.6"
   style="fill:none;stroke:#ff0000;stroke-width:1.3115" /><path
   id="path2487"
   class="st12"
   d="M316,456.4v119.3h1.1l1.2-4.8l1.1-4.8l0.9-4.8l0.8-4.8l0.7-4.8l0.6-4.8l0.1-1l0.5-3.8l0.6-4.8  l0.5-4.8l0.5-4.8l0.4-4.8l0.4-4.8l0.4-4.8l0.3-4.8l0.3-4.8l0.3-4.8l0.3-4.8l0.2-4.8l0.2-4.8l0.2-4.8l0.2-4.8l0.2-4.8l0.2-4.8  l0.2-4.8l0.2-4.8L316,456.4z" /><path
   d="m 254.5787,612.94633 v 66.56743 l 0.2067,-4.60164 0.19098,-4.767 0.17061,-4.76759 0.15488,-4.76467 0.13858,-4.76758 0.12519,-4.76701 0.11586,-4.76525 0.10481,-4.76701 0.0955,-4.76758 0.0908,-4.76467 0.0821,-4.76759 0.0774,-4.767 0.0704,-4.76759 0.0658,-4.76525 z"
   style="fill:#482173;fill-opacity:1;fill-rule:evenodd;stroke:none;stroke-width:0.582263"
   id="path54572" /><path
   d="m 256.26843,612.94633 -0.0658,4.76525 -0.0704,4.76759 -0.0774,4.767 -0.0821,4.76759 -0.0908,4.76467 -0.0955,4.76758 -0.10481,4.76701 -0.11586,4.76525 -0.12519,4.76701 -0.13858,4.76758 -0.15488,4.76467 -0.17061,4.76759 -0.19098,4.767 -0.2067,4.60164 v 52.59715 h 0.64573 l 2.31799,-4.76758 1.6647,-4.76468 1.22567,-4.76758 0.92347,-4.767 0.71677,-4.76526 0.57062,-4.767 0.46639,-4.76759 0.38895,-4.76525 0.33015,-4.76701 0.28181,-4.76758 0.24805,-4.767 0.21602,-4.76526 0.19098,-4.767 0.1706,-4.76759 0.15431,-4.76467 0.13916,-4.76758 0.12751,-4.76701 0.11354,-4.76525 0.10656,-4.76701 0.0955,-4.76758 0.0914,-4.76467 0.0815,-4.76759 0.0774,-4.767 0.0728,-4.76759 0.0658,-4.76525 z"
   style="fill:#433e85;fill-opacity:1;fill-rule:evenodd;stroke:none;stroke-width:0.582263"
   id="path54574" /><path
   d="m 273.70668,612.94633 h -7.64456 l -0.0658,4.76525 -0.0728,4.76759 -0.0774,4.767 -0.0815,4.76759 -0.0914,4.76467 -0.0955,4.76758 -0.10656,4.76701 -0.11354,4.76525 -0.12751,4.76701 -0.13916,4.76758 -0.15431,4.76467 -0.1706,4.76759 -0.19098,4.767 -0.21602,4.76526 -0.24805,4.767 -0.28181,4.76758 -0.33015,4.76701 -0.38895,4.76525 -0.46639,4.76759 -0.57062,4.767 -0.71677,4.76526 -0.92347,4.767 -1.22567,4.76758 -1.6647,4.76468 -2.31799,4.76758 h 9.81465 l 1.60764,-3.34802 0.66902,-1.41956 1.62626,-4.76468 1.20064,-4.76758 0.91008,-4.767 0.70745,-4.76526 0.56363,-4.767 0.46174,-4.76759 0.38487,-4.76525 0.32491,-4.76701 0.21136,-3.59373 0.0687,-1.17385 0.23873,-4.767 0.20904,-4.76526 0.18632,-4.767 0.16653,-4.76759 0.14964,-4.76467 0.13684,-4.76758 0.12285,-4.76701 0.11122,-4.76525 0.10247,-4.76701 0.0955,-4.76758 0.0862,-4.76467 0.0798,-4.76759 0.0751,-4.767 0.0705,-4.76759 0.0658,-4.76525 z"
   style="fill:#38598c;fill-opacity:1;fill-rule:evenodd;stroke:none;stroke-width:0.582263"
   id="path54576" /><path
   d="m 284.99971,612.94633 h -9.32789 l -0.0658,4.76525 -0.0705,4.76759 -0.0751,4.767 -0.0798,4.76759 -0.0862,4.76467 -0.0955,4.76758 -0.10247,4.76701 -0.11122,4.76525 -0.12285,4.76701 -0.13684,4.76758 -0.14964,4.76467 -0.16653,4.76759 -0.18632,4.767 -0.20904,4.76526 -0.23873,4.767 -0.0687,1.17385 -0.21136,3.59373 -0.32491,4.76701 -0.38487,4.76525 -0.46174,4.76759 -0.56363,4.767 -0.70745,4.76526 -0.91008,4.767 -1.20064,4.76758 -1.62626,4.76468 -0.66902,1.41956 -1.60764,3.34802 h 9.69355 l 2.16312,-4.76758 1.57618,-4.76468 0.24339,-0.99217 0.91416,-3.77541 0.88038,-4.767 0.68707,-4.76526 0.54792,-4.767 0.45067,-4.76759 0.37498,-4.76525 0.0297,-0.45941 0.28182,-4.3076 0.26842,-4.76758 0.23233,-4.767 0.20437,-4.76526 0.18225,-4.767 0.16362,-4.76759 0.14557,-4.76467 0.13159,-4.76758 0.11878,-4.76701 0.10888,-4.76525 0.10015,-4.76701 0.0932,-4.76758 0.0844,-4.76467 0.0792,-4.76759 0.0728,-4.767 0.0687,-4.76759 z"
   style="fill:#2d708e;fill-opacity:1;fill-rule:evenodd;stroke:none;stroke-width:0.582263"
   id="path54578" /><path
   d="m 293.85654,612.94633 h -8.85683 l -0.0635,4.76525 -0.0687,4.76759 -0.0728,4.767 -0.0792,4.76759 -0.0844,4.76467 -0.0932,4.76758 -0.10015,4.76701 -0.10888,4.76525 -0.11878,4.76701 -0.13159,4.76758 -0.14557,4.76467 -0.16362,4.76759 -0.18225,4.767 -0.20437,4.76526 -0.23233,4.767 -0.26842,4.76758 -0.28182,4.3076 -0.0297,0.45941 -0.37498,4.76525 -0.45067,4.76759 -0.54792,4.767 -0.68707,4.76526 -0.88038,4.767 -0.91416,3.77541 -0.24339,0.99217 -1.57618,4.76468 -2.16312,4.76758 h 9.49383 l 1.54882,-3.67584 0.44776,-1.09174 1.45392,-4.76468 0.78198,-3.39576 0.30977,-1.37182 0.82973,-4.767 0.65271,-4.76526 0.52346,-4.767 0.009,-0.0914 0.41341,-4.67617 0.35285,-4.76525 0.30045,-4.76701 0.25678,-4.76758 0.22301,-4.767 0.19564,-4.76526 0.17293,-4.767 0.13625,-4.16669 0.018,-0.6009 0.13683,-4.76467 0.12461,-4.76758 0.11179,-4.76701 0.10248,-4.76525 0.0932,-4.76701 0.0885,-4.76758 0.0798,-4.76467 0.0728,-4.76759 0.0681,-4.767 0.0658,-4.76759 z"
   style="fill:#25858e;fill-opacity:1;fill-rule:evenodd;stroke:none;stroke-width:0.582263"
   id="path54580" /><path
   d="m 302.01291,612.94633 h -8.15637 l -0.0594,4.76525 -0.0658,4.76759 -0.0681,4.767 -0.0728,4.76759 -0.0798,4.76467 -0.0885,4.76758 -0.0932,4.76701 -0.10247,4.76525 -0.1118,4.76701 -0.1246,4.76758 -0.13683,4.76467 -0.018,0.6009 -0.13625,4.16669 -0.17293,4.767 -0.19564,4.76526 -0.22301,4.767 -0.25678,4.76758 -0.30045,4.76701 -0.35285,4.76525 -0.41341,4.67617 -0.009,0.0914 -0.52346,4.767 -0.65272,4.76526 -0.82972,4.767 -0.30977,1.37182 -0.78198,3.39576 -1.45392,4.76468 -0.44776,1.09174 -1.54883,3.67584 h 9.23647 l 1.20529,-3.28688 0.52346,-1.4807 1.13716,-4.2418 0.13625,-0.52288 0.96015,-4.76758 0.41807,-2.66095 0.32316,-2.10605 0.58692,-4.76526 0.47338,-4.767 0.009,-0.11878 0.37556,-4.64881 0.32024,-4.76525 0.27308,-4.76701 0.23466,-4.76758 0.0885,-2.06064 0.11354,-2.70636 0.17527,-4.76526 0.15488,-4.767 0.13858,-4.76759 0.12286,-4.76467 0.11354,-4.76758 0.10015,-4.76701 0.0932,-4.76525 0.0868,-4.76701 0.0769,-4.76758 0.025,-1.59191 0.0477,-3.17276 0.0664,-4.76759 0.0611,-4.767 0.0571,-4.76759 z"
   style="fill:#1e9b8a;fill-opacity:1;fill-rule:evenodd;stroke:none;stroke-width:0.582263"
   id="path54582" /><path
   d="m 302.01291,612.94633 -0.0524,4.76525 -0.0571,4.76759 -0.0611,4.767 -0.0664,4.76759 -0.0477,3.17276 -0.025,1.59191 -0.0769,4.76758 -0.0868,4.76701 -0.0932,4.76525 -0.10015,4.76701 -0.11354,4.76758 -0.12286,4.76467 -0.13858,4.76759 -0.15488,4.767 -0.17527,4.76526 -0.11354,2.70636 -0.0885,2.06064 -0.23465,4.76758 -0.27308,4.76701 -0.32025,4.76525 -0.37556,4.64881 -0.009,0.11878 -0.47339,4.767 -0.58692,4.76526 -0.32316,2.10605 -0.41806,2.66095 -0.96016,4.76758 -0.13625,0.52288 -1.13716,4.2418 -0.52346,1.4807 -1.20529,3.28688 h 8.96805 l 0.42098,-1.45566 0.90775,-3.31192 0.14789,-0.68475 0.84138,-4.07993 0.15488,-0.95549 0.59798,-3.81209 0.34121,-2.74072 0.24804,-2.02628 0.46815,-4.76526 0.17759,-2.18582 v -93.14666 z"
   style="fill:#2bb07f;fill-opacity:1;fill-rule:evenodd;stroke:none;stroke-width:0.582263"
   id="path54584" /><path
   d="m 306.73682,706.09299 -0.17759,2.18582 -0.46814,4.76526 -0.24805,2.02628 -0.3412,2.74072 -0.59799,3.81209 -0.15488,0.95549 -0.84138,4.07993 -0.14789,0.68475 -0.90775,3.31192 -0.42098,1.45566 h 4.30585 z"
   style="fill:#51c56a;fill-opacity:1;fill-rule:evenodd;stroke:none;stroke-width:0.582263"
   id="path54586" /><path
   d="m 254.5787,679.51376 0.2067,-4.60164 0.19098,-4.767 0.17061,-4.76759 0.15488,-4.76467 0.13858,-4.76758 0.12519,-4.76701 0.11586,-4.76525 0.10481,-4.76701 0.0955,-4.76758 0.0908,-4.76467 0.0821,-4.76759 0.0774,-4.767 0.0704,-4.76759 0.0658,-4.76525"
   style="fill:none;stroke:#ffffff;stroke-width:0.621265;stroke-linecap:butt;stroke-linejoin:round;stroke-miterlimit:10;stroke-dasharray:none;stroke-opacity:1"
   id="path54588" /><path
   d="m 255.22443,732.11091 2.31799,-4.76758 1.6647,-4.76468 1.22567,-4.76758 0.92347,-4.767 0.71677,-4.76526 0.57062,-4.767 0.46639,-4.76759 0.38895,-4.76525 0.33015,-4.76701 0.28181,-4.76758 0.24805,-4.767 0.21602,-4.76526 0.19098,-4.767 0.1706,-4.76759 0.15431,-4.76467 0.13916,-4.76758 0.12751,-4.76701 0.11354,-4.76525 0.10656,-4.76701 0.0955,-4.76758 0.0914,-4.76467 0.0815,-4.76759 0.0774,-4.767 0.0728,-4.76759 0.0658,-4.76525"
   style="fill:none;stroke:#ffffff;stroke-width:0.621265;stroke-linecap:butt;stroke-linejoin:round;stroke-miterlimit:10;stroke-dasharray:none;stroke-opacity:1"
   id="path54590" /><path
   d="m 265.03908,732.11091 1.60764,-3.34802 0.66902,-1.41956 1.62626,-4.76468 1.20064,-4.76758 0.91008,-4.767 0.70745,-4.76526 0.56363,-4.767 0.46174,-4.76759 0.38487,-4.76525 0.32491,-4.76701 0.21136,-3.59373 0.0687,-1.17385 0.23873,-4.767 0.20904,-4.76526 0.18632,-4.767 0.16653,-4.76759 0.14964,-4.76467 0.13684,-4.76758 0.12285,-4.76701 0.11122,-4.76525 0.10247,-4.76701 0.0955,-4.76758 0.0862,-4.76467 0.0798,-4.76759 0.0751,-4.767 0.0705,-4.76759 0.0658,-4.76525"
   style="fill:none;stroke:#ffffff;stroke-width:0.621265;stroke-linecap:butt;stroke-linejoin:round;stroke-miterlimit:10;stroke-dasharray:none;stroke-opacity:1"
   id="path54592" /><path
   d="m 274.73263,732.11091 2.16312,-4.76758 1.57618,-4.76468 0.24339,-0.99217 0.91416,-3.77541 0.88038,-4.767 0.68707,-4.76526 0.54792,-4.767 0.45067,-4.76759 0.37498,-4.76525 0.0297,-0.45941 0.28182,-4.3076 0.26842,-4.76758 0.23233,-4.767 0.20437,-4.76526 0.18225,-4.767 0.16362,-4.76759 0.14557,-4.76467 0.13159,-4.76758 0.11878,-4.76701 0.10888,-4.76525 0.10015,-4.76701 0.0932,-4.76758 0.0844,-4.76467 0.0792,-4.76759 0.0728,-4.767 0.0687,-4.76759 0.0635,-4.76525"
   style="fill:none;stroke:#ffffff;stroke-width:0.621265;stroke-linecap:butt;stroke-linejoin:round;stroke-miterlimit:10;stroke-dasharray:none;stroke-opacity:1"
   id="path54594" /><path
   d="m 284.22646,732.11091 1.54882,-3.67584 0.44776,-1.09174 1.45392,-4.76468 0.78198,-3.39576 0.30977,-1.37182 0.82973,-4.767 0.65271,-4.76526 0.52346,-4.767 0.009,-0.0914 0.41341,-4.67617 0.35285,-4.76525 0.30045,-4.76701 0.25678,-4.76758 0.22301,-4.767 0.19564,-4.76526 0.17293,-4.767 0.13625,-4.16669 0.018,-0.6009 0.13683,-4.76467 0.12461,-4.76758 0.11179,-4.76701 0.10248,-4.76525 0.0932,-4.76701 0.0885,-4.76758 0.0798,-4.76467 0.0728,-4.76759 0.0681,-4.767 0.0658,-4.76759 0.0594,-4.76525"
   style="fill:none;stroke:#ffffff;stroke-width:0.621265;stroke-linecap:butt;stroke-linejoin:round;stroke-miterlimit:10;stroke-dasharray:none;stroke-opacity:1"
   id="path54596" /><path
   d="m 293.46293,732.11091 1.20529,-3.28688 0.52345,-1.4807 1.13717,-4.2418 0.13625,-0.52288 0.96015,-4.76758 0.41807,-2.66095 0.32315,-2.10605 0.58693,-4.76526 0.47338,-4.767 0.009,-0.11878 0.37556,-4.64881 0.32025,-4.76525 0.27308,-4.76701 0.23465,-4.76758 0.0885,-2.06064 0.11354,-2.70636 0.17526,-4.76526 0.15488,-4.767 0.13858,-4.76759 0.12286,-4.76467 0.11354,-4.76758 0.10015,-4.76701 0.0932,-4.76525 0.0868,-4.76701 0.0769,-4.76758 0.025,-1.59191 0.0478,-3.17276 0.0664,-4.76759 0.0611,-4.767 0.0571,-4.76759 0.0524,-4.76525"
   style="fill:none;stroke:#ffffff;stroke-width:0.621265;stroke-linecap:butt;stroke-linejoin:round;stroke-miterlimit:10;stroke-dasharray:none;stroke-opacity:1"
   id="path54598" /><path
   d="m 302.43097,732.11091 0.42098,-1.45566 0.90775,-3.31192 0.14789,-0.68475 0.84138,-4.07993 0.15488,-0.95549 0.59799,-3.81209 0.3412,-2.74072 0.24805,-2.02628 0.46814,-4.76526 0.17759,-2.18582"
   style="fill:none;stroke:#ffffff;stroke-width:0.621265;stroke-linecap:butt;stroke-linejoin:round;stroke-miterlimit:10;stroke-dasharray:none;stroke-opacity:1"
   id="path54600" /><path
   d="m 260.40907,668.90568 c 0,3.0055 -4.51228,3.0055 -4.51228,0 0,-3.00662 4.51228,-3.00662 4.51228,0"
   style="fill:#ff0000;stroke:#000000;stroke-width:0.817611;stroke-linecap:round;stroke-linejoin:round;stroke-miterlimit:10;stroke-dasharray:none;stroke-opacity:0.501961"
   id="path56680" /></svg>
